<svg width="1536" height="1024" viewBox="0 0 1536 1024" fill="none" xmlns="http://www.w3.org/2000/svg">
<path d="M211.125 332.312C212.925 332.371 212.925 332.371 214.761 332.431C227.2 332.904 239.593 333.907 251.993 334.984C260.016 335.672 267.937 336.229 276 336C276 336.33 276 336.66 276 337C277.621 337.233 277.621 337.233 279.275 337.471C314.803 342.605 349.855 348.618 384 360C384 387.39 384 414.78 384 443C383.34 443 382.68 443 382 443C381.67 443.99 381.34 444.98 381 446C380.67 445.01 380.34 444.02 380 443C377.701 442.046 377.701 442.046 375 441.437C372.25 440.746 372.25 440.746 370 440C369.67 439.34 369.34 438.68 369 438C366.942 437.249 366.942 437.249 364.391 436.672C359.812 435.496 355.305 434.189 350.797 432.766C336.574 428.3 322.362 424.148 307.812 420.875C307.154 420.725 306.496 420.575 305.818 420.421C299.79 419.057 294.206 417.825 288 418C288 417.34 288 416.68 288 416C282.72 416 277.44 416 272 416C272 415.34 272 414.68 272 414C253.702 411.041 253.702 411.041 235.312 408.75C234.194 408.63 234.194 408.63 233.053 408.508C229.781 408.183 226.583 408.002 223.293 408.016C220 408 220 408 217.689 407.521C212.169 406.451 206.484 406.552 200.875 406.375C200.19 406.353 199.504 406.331 198.798 406.308C156.946 404.407 156.946 404.407 116.441 413.031C114 414 114 414 111.062 414.461C102.23 416.016 95.1238 420.799 90 428C87.7905 432.419 88.5835 438.19 89 443C93.4193 452.518 102.771 456.265 112 460C118.419 462.313 124.121 464.267 131 464C131.33 464.66 131.66 465.32 132 466C134.31 466 136.62 466 139 466C139 465.34 139 464.68 139 464C139.99 464.33 140.98 464.66 142 465C142 465.99 142 466.98 142 468C148.88 469.909 155.49 471.343 162.625 471.789C165.977 472.087 169.064 473.017 172.309 473.902C178.812 475.527 185.452 476.485 192.062 477.562C193.412 477.786 194.762 478.009 196.111 478.232C202.068 479.214 208.024 480.148 214 481C240.421 484.952 266.848 488.962 292.938 494.75C293.747 494.928 294.556 495.106 295.39 495.29C328.188 502.56 365.569 512.965 385.09 542.658C399.873 565.943 401.914 593.473 396 620C390.757 640.193 378.316 657.252 362 670C361.34 670 360.68 670 360 670C360 670.66 360 671.32 360 672C357.853 673.194 355.706 674.387 353.558 675.579C351.959 676.467 350.361 677.358 348.766 678.253C304.605 702.924 252.157 704.416 202.682 704.196C199.549 704.185 196.415 704.185 193.281 704.186C190.252 704.185 187.222 704.18 184.192 704.173C182.753 704.17 181.313 704.168 179.874 704.167C177.892 704.165 175.909 704.155 173.927 704.145C172.803 704.141 171.679 704.138 170.52 704.134C168 704 168 704 167 703C165.355 702.818 163.703 702.699 162.051 702.605C160.99 702.539 159.93 702.473 158.838 702.405C157.093 702.297 157.093 702.297 155.312 702.188C131.251 700.536 107.605 696.886 84 692C84.33 693.32 84.66 694.64 85 696C84.34 696 83.68 696 83 696C82.505 694.515 82.505 694.515 82 693C82.33 692.34 82.66 691.68 83 691C81.9095 690.898 80.8189 690.796 79.6953 690.691C74.2596 690.006 69.1168 688.494 63.875 686.938C62.3059 686.473 62.3059 686.473 60.7051 686C45.0922 681.301 29.0481 676.318 14.9052 668.016C13.0223 666.94 13.0223 666.94 10.9272 666.332C8.21303 665.23 6.84266 664.307 5 662C3.88254 656.153 4.21182 650.375 4.4375 644.449C4.47488 642.708 4.50868 640.966 4.53906 639.224C4.62848 634.648 4.76629 630.074 4.91425 625.499C5.05674 620.827 5.15339 616.155 5.25391 611.482C5.45777 602.32 5.71278 593.16 6 584C9.85574 584.6 13.0657 585.28 16.5898 586.969C17.4453 587.371 18.3008 587.773 19.1821 588.187C20.0914 588.62 21.0007 589.054 21.9375 589.5C46.0695 602.034 46.0695 602.034 72 608C72 608.66 72 609.32 72 610C77.1921 610.212 81.1267 609.591 86 608C86 609.32 86 610.64 86 612C92.2917 615.146 97.029 616.373 104 616C103.67 616.66 103.34 617.32 103 618C107.038 618.836 111.077 619.673 115.115 620.509C116.488 620.793 117.86 621.077 119.233 621.361C121.211 621.771 123.19 622.18 125.168 622.59C126.357 622.836 127.545 623.082 128.77 623.336C179.101 633.688 258.993 645.631 305.125 617C308.35 614.719 310.251 612.601 312 609C312.66 608.67 313.32 608.34 314 608C314.839 597.146 314.839 597.146 310.5 587.555C308.157 585.127 306.005 583.568 303 582C302.01 582 301.02 582 300 582C300.33 581.34 300.66 580.68 301 580C295.107 577.964 289.168 576.133 283.188 574.375C282.446 574.157 281.705 573.939 280.942 573.714C275.22 572.041 269.529 570.673 263.684 569.512C262.963 569.368 262.242 569.225 261.499 569.077C247.62 566.329 233.746 563.652 219.75 561.562C218.67 561.399 217.591 561.236 216.478 561.067C212.12 560.442 207.922 559.921 203.516 560.027C199.947 560 199.024 559.539 196 558C194.418 557.622 192.821 557.307 191.217 557.042C190.265 556.881 189.314 556.72 188.334 556.554C187.306 556.387 186.278 556.219 185.219 556.047C183.006 555.674 180.793 555.302 178.58 554.929C177.423 554.737 176.266 554.544 175.074 554.346C70.6237 536.924 70.6237 536.924 36 509C35.0899 508.272 34.1798 507.543 33.2422 506.793C14.7116 491.067 6.28398 470.083 4.31641 446.398C4.20799 444.932 4.10219 443.466 4 442C3.92652 441.002 3.85305 440.005 3.77735 438.977C2.96167 415.925 11.8097 393.986 27.0938 377.031C61.3418 340.574 117.707 335.468 164.688 332.812C165.434 332.77 166.181 332.727 166.95 332.683C181.688 331.854 196.369 331.83 211.125 332.312ZM274 414C278 415 278 415 278 415L274 414Z" fill="white"/>
<path d="M439 336C440.008 336.162 441.017 336.325 442.056 336.492C445.793 336.973 449.341 337.129 453.105 337.133C454.418 337.134 455.731 337.135 457.084 337.137C457.758 337.135 458.432 337.133 459.126 337.13C461.193 337.125 463.259 337.13 465.326 337.137C466.635 337.135 467.944 337.134 469.293 337.133C470.484 337.132 471.676 337.131 472.903 337.129C475.47 337.022 477.562 336.758 480 336C480 336.66 480 337.32 480 338C482.292 337.859 484.584 337.712 486.875 337.562C488.151 337.481 489.427 337.4 490.742 337.316C493.883 337.208 493.883 337.208 496 336C497.909 336.234 499.818 336.474 501.723 336.746C504.675 337.075 507.565 337.029 510.531 336.938C520.122 337.18 520.122 337.18 523.547 340.379C524.274 341.429 525.001 342.48 525.75 343.562C526.597 344.75 527.445 345.938 528.293 347.125C528.73 347.755 529.168 348.386 529.619 349.035C532.014 352.442 534.55 355.742 537.062 359.062C538.091 360.434 539.118 361.807 540.145 363.18C540.634 363.834 541.123 364.489 541.627 365.163C542.818 366.757 544.009 368.351 545.199 369.945C546.983 372.331 548.773 374.711 550.565 377.09C551.679 378.572 552.788 380.057 553.896 381.543C556.049 384.43 558.211 387.309 560.375 390.188C561.078 391.134 561.781 392.08 562.505 393.055C563.171 393.938 563.837 394.821 564.523 395.73C565.419 396.928 565.419 396.928 566.333 398.149C567.959 400.26 567.959 400.26 571 401C571 401.99 571 402.98 571 404C572.068 405.881 572.068 405.881 573.57 407.816C574.13 408.571 574.689 409.326 575.266 410.104C575.879 410.915 576.493 411.726 577.125 412.562C577.757 413.409 578.388 414.255 579.039 415.127C583.86 421.56 588.791 427.907 593.751 434.233C598.492 440.297 603.066 446.472 607.609 452.684C612.002 458.678 616.482 464.6 621 470.5C626.795 478.07 632.492 485.703 638.128 493.392C642.182 498.913 646.321 504.359 650.516 509.773C653.338 513.426 656.107 517.118 658.875 520.812C659.371 521.473 659.868 522.133 660.379 522.813C663.056 526.38 665.706 529.964 668.324 533.574C668.866 534.315 669.409 535.056 669.967 535.819C671.013 537.248 672.05 538.683 673.08 540.124C674.315 541.805 675.65 543.411 677 545C677.99 545 678.98 545 680 545C680.086 545.715 680.173 546.431 680.262 547.168C681.159 550.61 682.617 552.516 684.812 555.312C685.632 556.371 686.451 557.429 687.27 558.488C687.93 559.334 687.93 559.334 688.604 560.198C691.111 563.434 693.551 566.72 696 570C698.906 573.885 701.815 577.766 704.766 581.617C705.187 582.17 705.609 582.723 706.043 583.293C707.176 584.779 708.315 586.26 709.453 587.742C711 590 711 590 711 592C714.527 588.597 717.602 585.09 720.562 581.188C720.986 580.631 721.409 580.075 721.846 579.502C725.769 574.337 729.652 569.141 733.535 563.946C736.676 559.749 739.852 555.582 743.062 551.438C746.791 546.607 750.449 541.73 754.062 536.812C754.54 536.164 755.018 535.516 755.51 534.847C757.952 531.547 757.952 531.547 760 528C760.66 528 761.32 528 762 528C762.245 527.281 762.49 526.561 762.742 525.82C764.152 522.658 765.875 520.502 768.125 517.875C771.952 513.308 775.514 508.632 778.988 503.793C785.142 495.25 791.586 486.919 797.989 478.562C803.202 471.751 808.35 464.893 813.485 458.023C815.068 455.909 816.655 453.798 818.242 451.688C818.777 450.976 819.312 450.265 819.863 449.531C820.876 448.184 821.89 446.837 822.905 445.49C826 441.37 829.019 437.204 832 433C831.34 432.67 830.68 432.34 830 432C830.6 431.905 831.2 431.81 831.818 431.712C834.502 430.836 835.253 429.857 836.918 427.605C837.446 426.902 837.974 426.199 838.519 425.475C839.069 424.72 839.62 423.965 840.188 423.188C840.758 422.422 841.328 421.657 841.915 420.869C843.07 419.318 844.22 417.764 845.367 416.208C846.832 414.227 848.317 412.264 849.816 410.309C850.44 409.493 850.44 409.493 851.075 408.661C851.463 408.154 851.851 407.647 852.25 407.125C854.396 404.313 855.881 402.356 857 399C858.651 397.318 860.32 395.653 862 394C863.431 392.194 864.826 390.359 866.188 388.5C866.965 387.448 867.742 386.396 868.543 385.312C868.946 384.767 869.348 384.222 869.763 383.66C871.809 380.914 873.905 378.208 876 375.5C881.965 367.766 887.856 359.98 893.57 352.059C894.511 350.761 894.511 350.761 895.472 349.438C896.726 347.708 897.974 345.973 899.216 344.234C899.792 343.441 900.368 342.649 900.961 341.832C901.474 341.118 901.988 340.403 902.517 339.667C904 338 904 338 907 337C908.556 336.984 910.114 337.032 911.668 337.121C912.561 337.169 913.453 337.218 914.373 337.268C915.766 337.352 915.766 337.352 917.188 337.438C918.598 337.516 918.598 337.516 920.037 337.596C922.358 337.725 924.679 337.86 927 338C927.33 337.34 927.66 336.68 928 336C928 336.66 928 337.32 928 338C929 337.836 930 337.673 931.03 337.504C937.105 336.75 943.207 336.889 949.317 336.925C951.553 336.938 953.79 336.944 956.026 336.949C960.768 336.96 965.509 336.98 970.25 337C975.761 337.024 981.272 337.044 986.784 337.056C988.984 337.062 991.184 337.075 993.384 337.088C994.733 337.091 996.082 337.095 997.431 337.098C998.606 337.103 999.781 337.108 1000.99 337.114C1003.9 337.108 1003.9 337.108 1006.24 336.435C1008.89 335.781 1010.61 336.869 1013 338C1013 338.66 1013 339.32 1013 340C1012.01 340 1011.02 340 1010 340C1008.48 341.503 1008.48 341.503 1007.1 343.559C1006.55 344.328 1005.99 345.097 1005.42 345.89C1004.83 346.731 1004.24 347.571 1003.62 348.438C1002.36 350.2 1001.08 351.962 999.812 353.723C999.172 354.614 998.531 355.504 997.871 356.422C995.185 360.122 992.415 363.753 989.625 367.375C988.552 368.772 987.479 370.169 986.406 371.566C985.857 372.281 985.308 372.995 984.742 373.731C976.021 385.09 967.357 396.492 958.75 407.938C957.82 409.171 957.82 409.171 956.872 410.429C954.423 413.692 951.996 416.947 949.758 420.359C948.315 422.527 946.875 424.399 945.125 426.312C942.29 429.54 939.967 432.957 937.688 436.594C935.83 439.242 933.776 441.621 931.655 444.059C928.714 447.508 925.96 451.102 923.188 454.688C922.259 455.885 922.259 455.885 921.312 457.106C917.335 462.245 913.409 467.418 909.527 472.629C906.116 477.196 902.646 481.719 899.188 486.25C894.433 492.481 889.692 498.722 885 505C880.37 511.195 875.692 517.352 871 523.5C864.775 531.657 858.592 539.844 852.449 548.063C849.397 552.143 846.337 556.218 843.279 560.293C841.12 563.172 838.962 566.051 836.809 568.934C833.31 573.614 829.791 578.278 826.238 582.918C811.414 601.17 811.414 601.17 799 621C798.269 621.715 797.538 622.431 796.785 623.168C793.655 626.35 791.073 629.722 788.438 633.312C787.388 634.728 786.339 636.143 785.289 637.559C784.752 638.285 784.215 639.012 783.661 639.761C781.98 642.027 780.285 644.283 778.586 646.535C778.038 647.262 777.489 647.99 776.924 648.739C775.865 650.142 774.806 651.545 773.746 652.947C771.154 656.333 771.154 656.333 769 660C768.34 660 767.68 660 767 660C764.837 665.048 763.874 669.555 763.88 675.043C763.878 676.034 763.877 677.026 763.876 678.047C763.879 679.123 763.883 680.199 763.886 681.308C763.886 683.021 763.886 683.021 763.886 684.768C763.887 688.539 763.895 692.311 763.902 696.082C763.904 698.698 763.906 701.314 763.907 703.93C763.91 710.11 763.918 716.29 763.928 722.47C763.939 729.507 763.945 736.545 763.95 743.582C763.96 758.055 763.978 772.527 764 787C763.01 787 762.02 787 761 787C760.67 787.66 760.34 788.32 760 789C760 788.34 760 787.68 760 787C727.66 787 695.32 787 662 787C661.963 778.3 661.925 769.6 661.887 760.637C661.853 754.437 661.817 748.237 661.778 742.037C661.728 733.999 661.683 725.961 661.654 717.923C661.631 711.56 661.597 705.198 661.551 698.835C661.527 695.465 661.509 692.096 661.502 688.726C661.493 684.966 661.465 681.207 661.432 677.448C661.434 676.327 661.435 675.207 661.437 674.052C661.424 673.03 661.412 672.008 661.399 670.954C661.392 669.62 661.392 669.62 661.385 668.259C660.921 665.538 660.062 664.756 658 663C657.333 661.667 656.667 660.333 656 659C654.575 657.058 653.111 655.145 651.625 653.25C650.718 652.085 649.812 650.92 648.906 649.754C648.431 649.142 647.955 648.53 647.465 647.899C644.986 644.686 642.555 641.437 640.125 638.188C639.623 637.517 639.121 636.846 638.604 636.155C637.58 634.786 636.556 633.417 635.532 632.048C633.025 628.696 630.512 625.348 628 622C627 620.667 626 619.333 625 618C624.505 617.34 624.01 616.68 623.5 616C619 610 619 610 617.501 608.001C616.498 606.664 615.495 605.326 614.491 603.989C612.039 600.72 609.588 597.449 607.141 594.176C602.763 588.323 598.374 582.481 593.934 576.676C593.23 575.756 592.527 574.835 591.802 573.887C590.434 572.101 589.065 570.316 587.694 568.532C583.824 563.476 580.146 558.352 576.652 553.027C574.887 550.862 573.463 550.202 571 549C570.67 548.01 570.34 547.02 570 546C569.34 546.33 568.68 546.66 568 547C568.209 546.407 568.418 545.814 568.633 545.203C569.311 542.673 569.311 542.673 566.867 539.758C565.883 538.536 564.885 537.326 563.875 536.125C563.144 535.226 563.144 535.226 562.398 534.309C560.477 531.953 558.526 529.622 556.563 527.301C554.318 524.64 552.364 522.224 551 519C550.01 519 549.02 519 548 519C547.96 518.34 547.92 517.68 547.879 517C546.577 512.556 543.83 509.56 540.938 506C539.653 504.384 538.369 502.766 537.086 501.148C536.414 500.305 535.742 499.462 535.05 498.593C531.666 494.312 528.364 489.97 525.062 485.625C524.073 484.325 524.073 484.325 523.063 482.998C516.489 474.349 509.969 465.658 503.464 456.957C502.981 456.311 502.498 455.665 502 455C501.505 454.257 501.01 453.514 500.499 452.748C500.005 452.171 499.51 451.594 499 451C498.01 451 497.02 451 496 451C495.917 450.29 495.835 449.579 495.75 448.848C494.821 445.321 493.247 443.305 491 440.438C490.176 439.373 489.351 438.307 488.527 437.242C488.106 436.703 487.684 436.164 487.25 435.608C485.317 433.121 483.443 430.59 481.562 428.062C477.174 422.212 472.722 416.413 468.253 410.624C461.752 402.2 455.279 393.755 448.819 385.3C445.536 381.004 442.242 376.717 438.938 372.438C434.685 366.92 430.509 361.347 426.346 355.761C422.793 351.009 419.129 346.378 415.328 341.82C414 340 414 340 414 338C417.786 336.789 421.423 336.867 425.375 336.875C427.305 336.871 427.305 336.871 429.273 336.867C432.617 336.986 435.721 337.36 439 338C439 337.34 439 336.68 439 336Z" fill="white"/>
<path d="M1027 336C1027.66 336 1028.32 336 1029 336C1029 336.66 1029 337.32 1029 338C1029.52 337.838 1030.03 337.675 1030.57 337.508C1033.72 336.849 1036.7 336.87 1039.93 336.867C1040.59 336.866 1041.26 336.865 1041.94 336.864C1043.35 336.864 1044.76 336.865 1046.16 336.87C1048.29 336.875 1050.43 336.87 1052.56 336.863C1053.93 336.864 1055.3 336.865 1056.68 336.867C1058.53 336.869 1058.53 336.869 1060.42 336.871C1064.01 337 1067.46 337.427 1071 338C1071.33 337.34 1071.66 336.68 1072 336C1072 336.66 1072 337.32 1072 338C1072.66 337.916 1073.33 337.832 1074.01 337.746C1082.78 336.735 1082.78 336.735 1087 338C1087.33 337.34 1087.66 336.68 1088 336C1088 336.66 1088 337.32 1088 338C1088.99 337.67 1089.98 337.34 1091 337C1093.19 337.438 1093.19 337.438 1095 338C1095 337.34 1095 336.68 1095 336C1096.13 336.084 1097.26 336.168 1098.43 336.254C1099.91 336.357 1101.39 336.46 1102.88 336.562C1103.62 336.619 1104.37 336.675 1105.14 336.732C1109.19 337.134 1109.19 337.134 1113 336C1113 336.66 1113 337.32 1113 338C1114.98 338 1116.96 338 1119 338C1119.33 337.34 1119.66 336.68 1120 336C1120 336.66 1120 337.32 1120 338C1121.45 337.857 1121.45 337.857 1122.92 337.711C1124.19 337.6 1125.45 337.489 1126.75 337.375C1128 337.259 1129.26 337.143 1130.55 337.023C1134.03 337 1135.16 337.183 1138 339C1139.44 340.812 1139.44 340.812 1140.77 343C1141.51 344.199 1141.51 344.199 1142.26 345.423C1142.77 346.273 1143.29 347.124 1143.81 348C1144.89 349.746 1145.96 351.491 1147.04 353.234C1147.56 354.068 1148.07 354.901 1148.6 355.76C1150.66 359.051 1152.88 362.209 1155.14 365.361C1157.27 368.382 1159.33 371.447 1161.37 374.523C1162.02 375.492 1162.02 375.492 1162.67 376.48C1168.03 384.543 1173.36 392.628 1178.69 400.715C1180.43 403.365 1182.18 406.015 1183.92 408.664C1189.83 417.632 1195.72 426.612 1201.52 435.654C1203.58 438.857 1205.65 441.995 1208 445C1211.97 439.05 1215.94 433.098 1219.89 427.141C1221.2 425.177 1222.51 423.213 1223.81 421.25C1224.5 420.212 1225.19 419.173 1225.91 418.103C1230.38 411.395 1234.93 404.747 1239.53 398.131C1242.3 394.117 1244.81 390.056 1247 385.699C1248 384 1248 384 1249.35 382.694C1251.32 380.677 1252.84 378.519 1254.44 376.203C1255.1 375.251 1255.76 374.299 1256.45 373.318C1257.14 372.306 1257.84 371.293 1258.56 370.25C1259.28 369.218 1259.99 368.185 1260.73 367.121C1265.17 360.699 1269.57 354.249 1273.82 347.694C1274.85 346.112 1275.93 344.555 1277 343C1277.62 341.96 1278.24 340.919 1278.88 339.848C1280.7 337.698 1281.7 337.065 1284.49 336.469C1287.69 336.287 1290.85 336.3 1294.05 336.379C1295.23 336.385 1296.4 336.391 1297.62 336.397C1301.37 336.424 1305.12 336.493 1308.88 336.562C1311.39 336.584 1313.91 336.603 1316.43 336.619C1336.18 336.799 1336.18 336.799 1343 338C1343.33 337.34 1343.66 336.68 1344 336C1344 336.66 1344 337.32 1344 338C1344.77 337.928 1345.54 337.856 1346.33 337.781C1355.3 337.056 1364.25 336.86 1373.25 336.812C1375.05 336.793 1375.05 336.793 1376.89 336.773C1378.03 336.772 1379.16 336.771 1380.33 336.77C1381.86 336.763 1381.86 336.763 1383.42 336.757C1386 337 1386 337 1389 339C1387.97 339.982 1387.97 339.982 1386.91 340.984C1383.42 344.478 1380.45 348.346 1377.44 352.25C1376.52 353.436 1376.52 353.436 1375.58 354.646C1371.03 360.559 1366.68 366.59 1362.42 372.717C1358.39 378.515 1354.17 384.158 1349.83 389.737C1347.83 392.35 1346.17 394.556 1344.98 397.641C1343.65 400.853 1341.5 402.608 1339 405C1337.49 406.847 1336.01 408.725 1334.56 410.625C1333.93 411.453 1333.93 411.453 1333.29 412.298C1324.83 423.447 1316.6 434.76 1308.44 446.125C1303.58 452.895 1298.57 459.535 1293.48 466.135C1286.66 474.692 1286.66 474.692 1281 484C1280.34 484 1279.68 484 1279 484C1278.76 484.526 1278.53 485.052 1278.29 485.594C1276.6 488.754 1274.53 491.603 1272.44 494.5C1272 495.112 1271.57 495.724 1271.12 496.355C1268.91 499.438 1266.66 502.462 1264.27 505.41C1263.85 505.943 1263.42 506.475 1262.98 507.023C1261.81 508.487 1260.62 509.933 1259.42 511.379C1257.69 513.895 1257.69 513.895 1258.55 516.543C1260.05 519.086 1261.62 521.422 1263.44 523.75C1264.03 524.529 1264.63 525.307 1265.25 526.109C1266.95 528.25 1266.95 528.25 1270 529C1270.38 530.321 1270.7 531.658 1271 533C1272.17 534.938 1272.17 534.938 1273.65 536.82C1274.18 537.52 1274.71 538.22 1275.26 538.941C1275.81 539.662 1276.37 540.383 1276.94 541.125C1277.76 542.217 1277.76 542.217 1278.61 543.332C1281.63 547.315 1281.63 547.315 1285 551C1285.87 552.301 1286.72 553.615 1287.56 554.938C1290.63 559.597 1294.08 563.831 1297.64 568.117C1301.6 572.953 1305.28 577.984 1309 583C1310.37 584.834 1311.75 586.668 1313.12 588.5C1314.24 589.983 1314.24 589.983 1315.37 591.496C1317.38 594.177 1319.4 596.856 1321.41 599.535C1327.75 607.973 1334.07 616.429 1340.31 624.938C1344.9 631.185 1349.56 637.365 1354.3 643.492C1359.72 650.513 1365 657.643 1370.31 664.744C1371.73 666.639 1373.15 668.531 1374.57 670.422C1376.72 673.276 1378.86 676.137 1381 679C1381.48 679.634 1381.95 680.267 1382.44 680.92C1383.99 682.985 1385.52 685.054 1387.06 687.125C1387.55 687.778 1388.04 688.43 1388.55 689.103C1392 693.772 1392 693.772 1392 696C1378.39 696.395 1364.78 696.696 1351.16 696.881C1344.84 696.969 1338.52 697.089 1332.19 697.282C1326.09 697.468 1319.98 697.569 1313.87 697.613C1311.55 697.644 1309.22 697.705 1306.9 697.797C1289.18 698.472 1289.18 698.472 1283.86 694.335C1280.14 690.328 1277.48 685.858 1275.03 680.992C1273.69 678.394 1272.04 676.082 1270.29 673.738C1264.34 665.264 1258.45 656.752 1252.62 648.188C1247.18 640.183 1241.71 632.203 1236.19 624.25C1235.5 623.255 1234.81 622.26 1234.1 621.235C1233.46 620.317 1232.83 619.399 1232.17 618.453C1231.6 617.64 1231.04 616.827 1230.46 615.989C1229.01 613.91 1229.01 613.91 1227 612C1226.02 610.494 1225.07 608.97 1224.12 607.438C1219.08 599.4 1213.52 591.719 1208 584C1203.92 587.634 1201.22 591.995 1198.31 596.562C1197.81 597.33 1197.32 598.098 1196.8 598.889C1194 603.242 1194 603.242 1192 608C1191.14 608.853 1191.14 608.853 1190.26 609.723C1187.32 612.682 1185.16 615.967 1182.88 619.438C1182.43 620.093 1181.99 620.748 1181.54 621.424C1179.73 624.143 1178.15 626.592 1177.01 629.66C1175.64 632.826 1173.47 634.62 1171 637C1169.82 638.609 1168.7 640.259 1167.62 641.938C1163.7 647.952 1159.68 653.888 1155.62 659.812C1151.14 666.378 1146.67 672.95 1142.25 679.562C1141.86 680.151 1141.46 680.739 1141.06 681.345C1138.54 685.134 1136.04 688.925 1134 693C1131.79 695.502 1129.99 696.849 1126.66 697.357C1123.64 697.482 1120.64 697.475 1117.62 697.426C1115.9 697.421 1115.9 697.421 1114.15 697.417C1110.39 697.402 1106.63 697.358 1102.88 697.312C1100.28 697.295 1097.68 697.28 1095.09 697.266C1070.05 697.1 1045.02 696.611 1020 696C1020.95 694.567 1021.89 693.136 1022.84 691.705C1023.64 690.509 1023.64 690.509 1024.44 689.288C1026.5 686.272 1028.71 683.466 1031 680.625C1036.07 674.264 1040.91 667.75 1045.72 661.188C1049.57 655.933 1053.46 650.705 1057.38 645.5C1058.81 643.59 1060.24 641.679 1061.67 639.768C1062.54 638.614 1063.41 637.462 1064.28 636.311C1065.42 634.795 1066.55 633.273 1067.69 631.75C1068.31 630.92 1068.93 630.09 1069.57 629.234C1071.11 627.12 1071.11 627.12 1071.46 624.828C1071.64 624.225 1071.82 623.622 1072 623C1072.59 622.718 1073.17 622.435 1073.77 622.145C1077.04 620.465 1078.62 617.66 1080.62 614.688C1084.54 609.016 1088.61 603.53 1092.95 598.177C1095.52 595 1095.52 595 1096 591C1096.99 590.67 1097.98 590.34 1099 590C1100.66 587.951 1102.18 585.906 1103.69 583.75C1104.67 582.379 1105.65 581.009 1106.64 579.641C1107.17 578.896 1107.71 578.152 1108.26 577.385C1111.43 573.035 1114.72 568.773 1118 564.5C1123.21 557.697 1128.35 550.859 1133.39 543.927C1136.43 539.738 1139.59 535.655 1142.86 531.637C1144.19 530.06 1144.19 530.06 1144 528C1145.64 526.311 1147.31 524.647 1149 523C1151.42 520.679 1151.42 520.679 1153 518C1152.76 512.761 1150.78 509.781 1147.62 505.688C1146.83 504.639 1146.04 503.591 1145.23 502.512C1143.18 499.783 1143.18 499.783 1140 499C1140.33 498.34 1140.66 497.68 1141 497C1139.71 495.207 1138.42 493.415 1137.12 491.625C1136.41 490.627 1135.69 489.63 1134.95 488.602C1133.1 486.005 1133.1 486.005 1131 484C1130.07 482.667 1129.17 481.317 1128.29 479.957C1125.1 475.116 1121.77 470.39 1118.38 465.688C1117.82 464.903 1117.26 464.119 1116.68 463.311C1112.21 456.736 1112.21 456.736 1106 452C1105.88 451.237 1105.75 450.474 1105.62 449.688C1104.85 446.362 1103.45 445.303 1101 443C1099.66 440.672 1098.85 438.563 1098 436C1097.34 436 1096.68 436 1096 436C1095.06 434.21 1094.11 432.419 1093.17 430.629C1092.01 428.677 1092.01 428.677 1089 428C1089 427.01 1089 426.02 1089 425C1087.48 422.609 1085.93 420.342 1084.25 418.062C1083.81 417.442 1083.36 416.821 1082.91 416.182C1080.48 412.834 1077.97 409.886 1075 407C1074.32 405.675 1073.65 404.342 1073 403C1071.65 401.228 1071.65 401.228 1070 400C1069.01 400 1068.02 400 1067 400C1067.1 399.158 1067.21 398.316 1067.31 397.449C1066.89 392.762 1064.86 390.422 1062 386.812C1060.99 385.495 1059.98 384.178 1058.96 382.859C1058.46 382.212 1057.96 381.564 1057.44 380.896C1056.12 379.154 1054.86 377.386 1053.63 375.578C1052.61 374.085 1052.61 374.085 1051.56 372.562C1050.97 371.677 1050.37 370.791 1049.75 369.879C1049.18 369.259 1048.6 368.639 1048 368C1046.68 368 1045.36 368 1044 368C1041.69 365.688 1041.69 365.688 1040 363C1040.33 362.01 1040.66 361.02 1041 360C1039.83 357.025 1038.06 354.565 1036.18 351.996C1035.64 351.256 1035.11 350.515 1034.56 349.752C1033.43 348.203 1032.3 346.656 1031.17 345.111C1030.37 344.002 1030.37 344.002 1029.55 342.871C1028.82 341.865 1028.82 341.865 1028.07 340.838C1027 339 1027 339 1027 336ZM1046 365C1047 367 1047 367 1047 367L1046 365Z" fill="white"/>
<path d="M712 220C712.66 220 713.32 220 714 220C715.839 225.3 717.672 230.602 719.499 235.906C720.121 237.708 720.745 239.511 721.37 241.312C722.271 243.907 723.165 246.504 724.059 249.102C724.477 250.302 724.477 250.302 724.905 251.527C726.054 254.885 726.996 257.975 727.559 261.494C727.704 262.321 727.85 263.148 728 264C728.66 264.33 729.32 264.66 730 265C730.625 266.779 730.625 266.779 731.223 269.273C733.36 277.567 735.956 285.709 738.561 293.865C739.15 295.721 739.733 297.579 740.309 299.439C741.147 302.144 742.007 304.842 742.871 307.539C743.125 308.374 743.38 309.21 743.642 310.07C744.44 312.643 744.44 312.643 746 316C747.922 316.644 747.922 316.644 750 317C750.99 317.66 751.98 318.32 753 319C755.589 320.161 758.181 321.283 760.797 322.379C761.964 322.871 761.964 322.871 763.154 323.374C765.684 324.441 768.217 325.502 770.75 326.562C771.606 326.922 772.463 327.282 773.345 327.652C783.733 332.013 794.134 336.33 804.625 340.438C805.54 340.796 806.455 341.154 807.397 341.524C811.692 343.207 811.692 343.207 816.105 344.524C818.592 345.149 820.664 346.257 822.938 347.438C830.094 351.2 830.094 351.2 838 352C838.99 354.475 838.99 354.475 840 357C834.22 359.589 828.42 362.118 822.582 364.574C821.81 364.9 821.038 365.225 820.242 365.561C817.766 366.604 815.289 367.646 812.812 368.688C811.97 369.042 811.128 369.396 810.26 369.761C800.1 374.033 789.94 378.301 779.75 382.5C778.865 382.867 777.981 383.234 777.07 383.612C771.237 386 771.237 386 769 386C768.67 386.66 768.34 387.32 768 388C766.102 388.676 766.102 388.676 763.625 389.312C758.563 390.727 753.979 392.735 749.25 395.012C747 396 747 396 745 396C744.829 396.649 744.658 397.298 744.481 397.967C742.543 405.207 740.366 412.349 738.086 419.488C737.321 421.899 736.556 424.309 735.791 426.719C735.189 428.61 734.587 430.501 733.985 432.393C727.473 452.874 721.03 473.37 715 494C713.68 494 712.36 494 711 494C710.494 492.564 709.996 491.126 709.5 489.688C709.222 488.887 708.943 488.086 708.656 487.262C708 485 708 485 708 482C707.34 481.67 706.68 481.34 706 481C705.219 478.453 705.219 478.453 704.5 475.25C703.438 470.564 702.151 466.303 700 462C699.746 460.786 699.492 459.571 699.23 458.32C697.727 451.372 695.467 444.642 693.312 437.875C692.41 435.025 691.509 432.175 690.609 429.324C690.386 428.618 690.163 427.912 689.933 427.184C688.541 422.767 687.197 418.338 685.891 413.895C685.578 412.837 685.266 411.78 684.944 410.69C684.37 408.735 683.803 406.778 683.245 404.818C682.99 403.954 682.735 403.09 682.473 402.199C682.259 401.455 682.045 400.711 681.824 399.944C680.205 396.125 677.645 394.626 673.91 393.105C672.298 392.458 670.682 391.819 669.062 391.188C668.251 390.85 667.44 390.513 666.604 390.166C665.818 389.857 665.032 389.549 664.223 389.23C663.509 388.946 662.795 388.661 662.059 388.368C659.415 387.895 658.239 388.611 656 390C656 388.68 656 387.36 656 386C655.422 385.771 654.843 385.543 654.248 385.307C646.25 382.13 638.321 378.797 630.395 375.447C628.857 374.802 628.857 374.802 627.289 374.145C625.908 373.562 625.908 373.562 624.499 372.968C622.318 372.123 620.305 371.39 618 371C617.34 371.33 616.68 371.66 616 372C615.67 371.01 615.34 370.02 615 369C612.369 367.53 612.369 367.53 609.102 366.266C607.9 365.774 606.699 365.283 605.461 364.777C604.832 364.527 604.202 364.277 603.554 364.019C601.633 363.253 599.723 362.466 597.812 361.676C591.528 358.63 591.528 358.63 585 359C584.67 357.02 584.34 355.04 584 353C584.967 353.072 585.934 353.145 586.93 353.219C591.793 353.208 595.721 351.403 600.125 349.492C600.99 349.129 601.854 348.766 602.745 348.392C605.502 347.231 608.251 346.054 611 344.875C613.714 343.725 616.429 342.579 619.145 341.432C620.914 340.685 622.682 339.934 624.449 339.181C628.488 337.463 632.532 335.774 636.621 334.177C637.674 333.765 637.674 333.765 638.749 333.345C640.616 332.622 642.488 331.909 644.359 331.196C647.123 330.278 647.123 330.278 648 328C649.993 327.627 651.995 327.301 654 327C658.282 325.717 662.443 324.138 666.625 322.562C667.757 322.174 668.889 321.785 670.055 321.385C675.949 319.22 675.949 319.22 680.457 315.056C681.562 312.407 682.277 309.779 683 307C683.645 304.981 684.32 302.973 684.993 300.964C686.042 297.814 687.049 294.651 688.059 291.489C694.438 271.54 701.147 251.71 707.971 231.909C709.336 227.947 710.682 223.979 712 220Z" fill="white"/>
<path d="M661 662C662.972 663.295 662.972 663.295 665 666C665.614 669.753 665.504 673.491 665.454 677.286C665.455 678.438 665.455 679.589 665.456 680.776C665.453 684.585 665.422 688.394 665.391 692.203C665.383 694.843 665.377 697.483 665.373 700.123C665.361 706.363 665.328 712.603 665.288 718.843C665.243 725.948 665.221 733.053 665.201 740.159C665.159 754.773 665.089 769.386 665 784C666.146 783.996 667.292 783.991 668.472 783.987C679.258 783.946 690.044 783.916 700.83 783.896C706.376 783.886 711.922 783.872 717.467 783.849C722.816 783.827 728.165 783.815 733.515 783.81C735.558 783.807 737.601 783.799 739.645 783.789C742.501 783.774 745.358 783.772 748.214 783.773C749.064 783.766 749.913 783.759 750.788 783.751C754.711 783.765 756.661 783.774 760 786C727.99 786 695.98 786 663 786C662.939 777.3 662.879 768.6 662.816 759.637C662.771 753.437 662.725 747.237 662.677 741.037C662.616 732.999 662.557 724.961 662.503 716.923C662.46 710.56 662.414 704.198 662.363 697.835C662.337 694.465 662.312 691.096 662.291 687.726C662.267 683.967 662.237 680.207 662.205 676.448C662.2 675.327 662.194 674.207 662.188 673.052C662.178 672.03 662.168 671.008 662.158 669.954C662.149 668.62 662.149 668.62 662.139 667.259C662.087 664.832 662.087 664.832 661 662Z" fill="#060404"/>
<path d="M762 664C762.33 664 762.66 664 763 664C763.935 668.699 764.113 673.218 764.038 677.99C764.03 678.768 764.022 679.546 764.013 680.348C763.986 682.906 763.95 685.465 763.914 688.023C763.892 689.812 763.871 691.6 763.85 693.388C763.804 697.132 763.755 700.876 763.703 704.62C763.637 709.404 763.58 714.187 763.525 718.971C763.482 722.663 763.435 726.355 763.386 730.048C763.363 731.811 763.342 733.574 763.322 735.337C763.292 737.808 763.258 740.28 763.221 742.751C763.214 743.471 763.207 744.19 763.199 744.931C763.121 749.687 762.657 754.288 762 759C761.67 759 761.34 759 761 759C760.977 746.909 760.959 734.818 760.948 722.727C760.943 717.113 760.936 711.499 760.925 705.885C760.914 700.471 760.908 695.057 760.905 689.643C760.903 687.573 760.9 685.504 760.894 683.435C760.887 680.544 760.886 677.654 760.887 674.764C760.883 673.902 760.879 673.039 760.876 672.151C760.886 666.228 760.886 666.228 762 664Z" fill="#050404"/>
<path d="M1027 336C1027.66 336 1028.32 336 1029 336C1029 336.66 1029 337.32 1029 338C1029.52 337.838 1030.03 337.675 1030.57 337.508C1033.72 336.849 1036.7 336.87 1039.93 336.867C1040.59 336.866 1041.26 336.865 1041.94 336.864C1043.35 336.864 1044.76 336.865 1046.16 336.87C1048.29 336.875 1050.43 336.87 1052.56 336.863C1053.93 336.864 1055.3 336.865 1056.68 336.867C1058.53 336.869 1058.53 336.869 1060.42 336.871C1064.01 337 1067.46 337.427 1071 338C1071.33 337.34 1071.66 336.68 1072 336C1072 336.66 1072 337.32 1072 338C1072.66 337.916 1073.33 337.832 1074.01 337.746C1082.78 336.735 1082.78 336.735 1087 338C1087.33 337.34 1087.66 336.68 1088 336C1088 336.66 1088 337.32 1088 338C1088.99 337.67 1089.98 337.34 1091 337C1093.19 337.438 1093.19 337.438 1095 338C1095 337.34 1095 336.68 1095 336C1096.13 336.084 1097.26 336.168 1098.43 336.254C1099.91 336.357 1101.39 336.46 1102.88 336.562C1103.62 336.619 1104.37 336.675 1105.14 336.732C1109.19 337.134 1109.19 337.134 1113 336C1113 336.66 1113 337.32 1113 338C1114.98 338 1116.96 338 1119 338C1119.33 337.34 1119.66 336.68 1120 336C1120 336.66 1120 337.32 1120 338C1121.46 337.857 1121.46 337.857 1122.96 337.711C1124.23 337.6 1125.5 337.489 1126.81 337.375C1128.71 337.201 1128.71 337.201 1130.64 337.023C1134 337 1134 337 1137 339C1102.35 339 1067.7 339 1032 339C1032.33 341.31 1032.66 343.62 1033 346C1030.04 343.245 1027.96 340.534 1026 337C1026.33 336.67 1026.66 336.34 1027 336Z" fill="#252122"/>
<path d="M1022 693C1022.33 693.66 1022.66 694.32 1023 695C1036.62 694.893 1050.24 694.78 1063.86 694.661C1070.19 694.605 1076.51 694.552 1082.84 694.503C1088.94 694.455 1095.04 694.403 1101.14 694.347C1103.47 694.327 1105.8 694.308 1108.13 694.291C1111.39 694.267 1114.65 694.237 1117.91 694.205C1119.36 694.197 1119.36 694.197 1120.84 694.188C1122.17 694.173 1122.17 694.173 1123.53 694.158C1124.3 694.152 1125.07 694.145 1125.87 694.139C1128.02 693.999 1129.93 693.59 1132 693C1131.67 693.99 1131.34 694.98 1131 696C1128.1 696.968 1126.26 697.127 1123.24 697.129C1122.26 697.133 1121.28 697.136 1120.27 697.139C1118.67 697.136 1118.67 697.136 1117.03 697.133C1115.91 697.134 1114.78 697.135 1113.62 697.137C1109.92 697.139 1106.21 697.132 1102.5 697.125C1101.24 697.124 1099.98 697.123 1098.68 697.122C1072.45 697.101 1046.23 696.637 1020 696C1020.66 695.01 1021.32 694.02 1022 693Z" fill="#282626"/>
<path d="M1390 693C1390.99 693.495 1390.99 693.495 1392 694C1392 694.66 1392 695.32 1392 696C1357.02 696 1322.04 696 1286 696C1286 695.67 1286 695.34 1286 695C1287.29 694.99 1288.58 694.979 1289.9 694.969C1302.01 694.871 1314.13 694.768 1326.24 694.661C1332.46 694.605 1338.69 694.552 1344.92 694.503C1350.92 694.455 1356.93 694.403 1362.93 694.347C1365.23 694.327 1367.52 694.308 1369.82 694.291C1373.02 694.267 1376.23 694.237 1379.43 694.205C1380.39 694.2 1381.35 694.194 1382.34 694.188C1383.64 694.173 1383.64 694.173 1384.97 694.158C1385.73 694.152 1386.49 694.145 1387.27 694.139C1389.03 694.186 1389.03 694.186 1390 693Z" fill="#262424"/>
<path d="M396 572C396.33 572 396.66 572 397 572C399.307 586.71 399.506 600.279 397 615C396.67 615 396.34 615 396 615C395.67 612.03 395.34 609.06 395 606C395.33 606 395.66 606 396 606C396.143 598.636 395.841 591.355 395.268 584.016C394.975 579.832 395.13 576.104 396 572Z" fill="#232121"/>
<path d="M495 336C496.949 336.248 496.949 336.248 498.938 336.5C502.917 336.949 506.782 337.025 510.781 336.969C514.238 337.017 517.582 337.503 521 338C520.67 338.99 520.34 339.98 520 341C500.2 340.505 500.2 340.505 480 340C480 339.67 480 339.34 480 339C480.999 338.951 481.998 338.902 483.027 338.852C484.318 338.777 485.608 338.702 486.938 338.625C488.225 338.555 489.513 338.486 490.84 338.414C491.883 338.277 492.926 338.141 494 338C494.33 337.34 494.66 336.68 495 336Z" fill="#151212"/>
<path d="M253 336C253 336.33 253 336.66 253 337C240.301 337.15 227.679 336.702 215 336C215 335.67 215 335.34 215 335C227.034 331.212 240.893 333.253 253 336Z" fill="#141313"/>
<path d="M1163 646C1163 649.786 1161.86 651.015 1159.72 654.105C1158.7 655.58 1158.7 655.58 1157.67 657.084C1156.59 658.62 1156.59 658.62 1155.5 660.188C1154.43 661.741 1154.43 661.741 1153.33 663.326C1151.56 665.888 1149.78 668.446 1148 671C1147.67 670.01 1147.34 669.02 1147 668C1148.29 665.972 1149.63 663.976 1151 662C1151.47 660.824 1151.95 659.649 1152.44 658.438C1154.14 654.696 1155.97 652.734 1159 650C1159.76 649.237 1160.53 648.474 1161.31 647.688C1161.87 647.131 1162.43 646.574 1163 646Z" fill="#211F1F"/>
<path d="M113 461C115.25 461.478 117.5 461.958 119.75 462.438C121.003 462.704 122.256 462.971 123.547 463.246C128.158 464.253 132.53 465.476 137 467C137 467.33 137 467.66 137 468C128.573 470.06 120.962 466.797 113 464C113 463.01 113 462.02 113 461Z" fill="#242222"/>
<path d="M5.00001 423C5.33001 423 5.66001 423 6.00001 423C7.14634 440.645 7.14634 440.645 6.93751 448.02C6.92789 450.029 6.92789 450.029 7.52735 452.027C8.26542 455.108 7.53342 457.918 7.00001 461C6.67001 461 6.34001 461 6.00001 461C3.07207 435.773 3.07207 435.773 5.00001 423Z" fill="#2C2A2A"/>
<path d="M280 340C271.137 340.332 262.742 339.321 254 338C254 337.67 254 337.34 254 337C257.104 336.803 260.208 336.619 263.312 336.438C264.634 336.353 264.634 336.353 265.982 336.268C267.254 336.195 267.254 336.195 268.551 336.121C269.721 336.05 269.721 336.05 270.915 335.978C274.806 336.019 277.061 337.669 280 340Z" fill="#151313"/>
<path d="M726 262C726.66 262 727.32 262 728 262C728 262.66 728 263.32 728 264C728.66 264.33 729.32 264.66 730 265C730.781 267.223 730.781 267.223 731.5 270.062C731.881 271.544 731.881 271.544 732.27 273.055C732.511 274.027 732.752 274.999 733 276C733.315 277.241 733.315 277.241 733.637 278.508C734.099 280.337 734.551 282.168 735 284C732 283 732 283 731.109 281.282C730.755 280.187 730.755 280.187 730.395 279.07C730.133 278.275 729.872 277.48 729.604 276.66C729.342 275.824 729.081 274.987 728.812 274.125C728.54 273.296 728.267 272.467 727.986 271.613C726 265.45 726 265.45 726 262Z" fill="#201E1E"/>
<path d="M570 542C570.66 542 571.32 542 572 542C573.665 543.881 575.181 545.748 576.688 547.75C577.33 548.558 577.33 548.558 577.986 549.383C581.055 553.434 581.055 553.434 580.77 556.391C580.516 556.922 580.262 557.453 580 558C579.528 557.277 579.528 557.277 579.047 556.539C576.642 552.989 575.023 550.724 571 549C570.67 548.01 570.34 547.02 570 546C569.01 546.495 569.01 546.495 568 547C568.66 545.35 569.32 543.7 570 542Z" fill="#221F1F"/>
<path d="M492 439C492.66 439 493.32 439 494 439C495.4 440.718 496.722 442.501 498 444.312C498.701 445.299 499.402 446.285 500.125 447.301C501.436 449.188 502.726 451.089 504 453C503.67 453.99 503.34 454.98 503 456C502.402 455.175 501.804 454.35 501.188 453.5C500.466 452.675 499.744 451.85 499 451C498.01 451 497.02 451 496 451C495.897 450.257 495.794 449.515 495.688 448.75C494.951 445.806 493.819 444.373 492 442C492 441.01 492 440.02 492 439Z" fill="#221F20"/>
<path d="M179.688 551.75C181.642 551.99 181.642 551.99 183.637 552.234C186.89 552.975 188.069 553.367 190 556C184.496 556.175 179.463 555.527 174.062 554.5C172.894 554.285 172.894 554.285 171.701 554.066C169.8 553.716 167.9 553.359 166 553C166 552.67 166 552.34 166 552C170.794 550.959 174.834 551.112 179.688 551.75Z" fill="#211F1F"/>
<path d="M1068 393C1068.66 393 1069.32 393 1070 393C1073 397.385 1073 397.385 1073 400C1073.66 400 1074.32 400 1075 400C1077 403 1077 403 1076.62 405.188C1076.42 405.786 1076.21 406.384 1076 407C1075.34 407 1074.68 407 1074 407C1073.9 406.402 1073.79 405.804 1073.69 405.188C1072.89 402.666 1072.08 401.603 1070 400C1069.01 400 1068.02 400 1067 400C1067.33 397.69 1067.66 395.38 1068 393Z" fill="#232121"/>
<path d="M1144 672C1144.7 673.688 1144.7 673.688 1145 676C1143.71 678.438 1143.71 678.438 1141.81 681C1141.2 681.846 1140.59 682.691 1139.96 683.562C1138.1 685.878 1136.14 687.947 1134 690C1134.5 685.209 1136.8 681.979 1139.56 678.188C1139.99 677.59 1140.41 676.993 1140.85 676.377C1141.89 674.913 1142.95 673.456 1144 672Z" fill="#201E1E"/>
<path d="M584 353C586.97 353 589.94 353 593 353C592.67 354.32 592.34 355.64 592 357C592.66 357 593.32 357 594 357C594.33 357.99 594.66 358.98 595 360C594.446 359.844 593.891 359.688 593.32 359.527C592.596 359.333 591.871 359.138 591.125 358.938C590.406 358.74 589.686 358.543 588.945 358.34C586.927 357.789 586.927 357.789 585 359C584.67 357.02 584.34 355.04 584 353Z" fill="#1E1B1C"/>
<path d="M840 562C840 566.265 837.555 568.5 835 571.688C834.285 572.597 834.285 572.597 833.555 573.525C832.376 575.022 831.189 576.512 830 578C829.67 577.01 829.34 576.02 829 575C830.364 572.817 831.726 570.883 833.312 568.875C833.73 568.325 834.147 567.774 834.576 567.207C837.702 563.149 837.702 563.149 840 562Z" fill="#232121"/>
<path d="M762 664C762.33 664 762.66 664 763 664C763.381 665.991 763.713 667.993 764 670C763.67 670.33 763.34 670.66 763 671C762.843 672.706 762.749 674.417 762.684 676.129C762.642 677.163 762.6 678.198 762.557 679.264C762.517 680.352 762.478 681.441 762.438 682.562C762.394 683.655 762.351 684.747 762.307 685.873C762.2 688.582 762.098 691.291 762 694C761.67 694 761.34 694 761 694C760.975 690.049 760.957 686.098 760.945 682.147C760.938 680.141 760.925 678.135 760.912 676.129C760.909 674.872 760.906 673.615 760.902 672.32C760.897 671.158 760.892 669.995 760.886 668.797C761 666 761 666 762 664Z" fill="#0D0B0B"/>
<path d="M643 641C645.982 641.331 646.914 641.904 648.957 644.18C649.875 645.514 649.875 645.514 650.812 646.875C651.438 647.759 652.063 648.644 652.707 649.555C653.134 650.362 653.56 651.169 654 652C653.67 652.99 653.34 653.98 653 655C651.33 652.856 649.664 650.71 648 648.562C647.523 647.951 647.046 647.339 646.555 646.709C643 642.113 643 642.113 643 641Z" fill="#211F1F"/>
<path d="M1119 466C1122.72 466.543 1124.09 467.841 1126.31 470.812C1127.11 471.843 1127.11 471.843 1127.93 472.895C1129 475 1129 475 1128.67 477.262C1128.45 477.835 1128.23 478.409 1128 479C1126.5 477.023 1125 475.044 1123.5 473.062C1123.07 472.499 1122.64 471.935 1122.2 471.354C1119 467.113 1119 467.113 1119 466Z" fill="#242121"/>
<path d="M191.477 402.867C197.089 402.881 202.473 402.995 208 404C208 404.33 208 404.66 208 405C205.042 405.221 202.084 405.427 199.125 405.625C197.862 405.722 197.862 405.722 196.574 405.82C195.366 405.898 195.366 405.898 194.133 405.977C193.389 406.029 192.646 406.081 191.879 406.135C190 406 190 406 188 404C189 403 189 403 191.477 402.867Z" fill="#0D0B0B"/>
<path d="M130.312 542.938C131.196 543.132 132.079 543.327 132.988 543.527C133.984 543.761 133.984 543.761 135 544C135 544.66 135 545.32 135 546C135.99 546.33 136.98 546.66 138 547C131.858 546.415 125.993 545.459 120 544C120 543.67 120 543.34 120 543C123.796 542.022 126.501 542.073 130.312 542.938Z" fill="#2D2B2B"/>
<path d="M829 351C831.97 351.33 834.94 351.66 838 352C838.66 353.65 839.32 355.3 840 357C838.02 357.99 838.02 357.99 836 359C835.67 358.01 835.34 357.02 835 356C833.35 355.67 831.7 355.34 830 355C829.67 353.68 829.34 352.36 829 351Z" fill="#282626"/>
<path d="M141.625 625.438C142.685 625.659 142.685 625.659 143.766 625.885C145.512 626.25 147.256 626.624 149 627C149 627.33 149 627.66 149 628C138.957 629.451 138.957 629.451 134 628C133.34 627.01 132.68 626.02 132 625C135.184 623.408 138.281 624.713 141.625 625.438Z" fill="#2B2929"/>
<path d="M740 411C739.347 414.517 738.486 417.893 737.437 421.312C737.168 422.196 736.899 423.079 736.621 423.988C736.416 424.652 736.211 425.316 736 426C735.67 426 735.34 426 735 426C734.917 421.214 734.858 416.684 736 412C738 411 738 411 740 411Z" fill="#232121"/>
<path d="M299 341C310.522 341.964 310.522 341.964 316 343C316 343.33 316 343.66 316 344C310.313 344.914 305.687 344.914 300 344C299.67 343.01 299.34 342.02 299 341Z" fill="#282526"/>
<path d="M1282 337C1285.96 337 1289.92 337 1294 337C1294.33 337.99 1294.66 338.98 1295 340C1290.38 340.33 1285.76 340.66 1281 341C1281.33 339.68 1281.66 338.36 1282 337Z" fill="#121010"/>
<path d="M1046 661C1046.66 661.99 1047.32 662.98 1048 664C1046.02 666.97 1046.02 666.97 1044 670C1043.01 669.67 1042.02 669.34 1041 669C1042.37 666.046 1043.99 663.56 1046 661Z" fill="#211F20"/>
<path d="M1226 607C1226.66 607 1227.32 607 1228 607C1229.54 608.828 1229.54 608.828 1231.19 611.25C1231.74 612.039 1232.29 612.828 1232.86 613.641C1234 616 1234 616 1233.68 618.297C1233.45 618.859 1233.23 619.421 1233 620C1232.38 619.051 1231.76 618.103 1231.12 617.125C1229.18 614.056 1229.18 614.056 1227 612C1226.38 609.375 1226.38 609.375 1226 607Z" fill="#211F1F"/>
<path d="M246 487C247.896 487.142 249.792 487.289 251.688 487.438C252.743 487.519 253.799 487.6 254.887 487.684C257.651 487.965 260.289 488.402 263 489C263 489.33 263 489.66 263 490C257.67 490.999 253.342 491.087 248 490C247.34 489.01 246.68 488.02 246 487Z" fill="#2B2929"/>
<path d="M154 472C158.95 472 163.9 472 169 472C165.899 474.067 164.598 474.361 161 474.688C159.701 474.817 159.701 474.817 158.375 474.949C156 475 156 475 153 474C153.33 473.34 153.66 472.68 154 472Z" fill="#272424"/>
<path d="M291 626C286.534 628.233 283.964 629.117 278.875 629.063C277.779 629.053 276.684 629.044 275.555 629.035C274.29 629.018 274.29 629.018 273 629C273 628.67 273 628.34 273 628C279.12 626.595 284.717 625.767 291 626Z" fill="#222020"/>
<path d="M1106 445C1108.95 447.744 1111.23 450.362 1113 454C1112.67 454.99 1112.34 455.98 1112 457C1111.38 456.361 1110.76 455.721 1110.12 455.062C1108.17 452.961 1108.17 452.961 1106 452C1106 449.69 1106 447.38 1106 445Z" fill="#222020"/>
<path d="M773 383C773 383.66 773 384.32 773 385C772.361 385.124 771.721 385.248 771.062 385.375C770.382 385.581 769.701 385.787 769 386C768.67 386.66 768.34 387.32 768 388C765.678 388.407 763.343 388.744 761 389C762 386 762 386 763.742 385.051C764.446 384.807 765.15 384.564 765.875 384.312C766.574 384.061 767.272 383.81 767.992 383.551C770 383 770 383 773 383Z" fill="#242121"/>
<path d="M1149 358C1152.26 361.023 1154.62 364.257 1157 368C1156.67 368.66 1156.34 369.32 1156 370C1153.35 367.422 1151.06 365.084 1149 362C1149 360.68 1149 359.36 1149 358Z" fill="#211F20"/>
<path d="M863 530C863.66 530 864.32 530 865 530C863.59 533.039 861.911 535.594 859.875 538.25C859.336 538.956 858.797 539.663 858.242 540.391C857.832 540.922 857.422 541.453 857 542C856.67 541.01 856.34 540.02 856 539C857.363 536.738 857.363 536.738 859.312 534.312C859.948 533.504 860.584 532.696 861.238 531.863C861.82 531.248 862.401 530.634 863 530Z" fill="#242222"/>
<path d="M86 346C85.34 346 84.68 346 84 346C84 346.66 84 347.32 84 348C82.0143 348.488 80.0286 348.977 78.043 349.465C76.3432 349.91 74.667 350.444 73 351C72.34 350.34 71.68 349.68 71 349C72.9336 348.302 74.872 347.617 76.8125 346.937C77.8914 346.555 78.9704 346.172 80.082 345.777C83 345 83 345 86 346Z" fill="#2A2828"/>
<path d="M52 604C56.9692 604.514 61.2903 605.234 66 607C64.3281 608.117 64.3281 608.117 62 609C59.4219 608.32 59.4219 608.32 56.75 607.125C55.858 606.736 54.9659 606.346 54.0469 605.945C53.3714 605.633 52.6959 605.321 52 605C52 604.67 52 604.34 52 604Z" fill="#252322"/>
<path d="M162 549C163.707 550.547 163.707 550.547 165 552C163.271 551.858 161.541 551.711 159.812 551.563C158.368 551.441 158.368 551.441 156.895 551.316C154.214 551.023 151.634 550.573 149 550C149 549.67 149 549.34 149 549C153.625 547.985 157.369 547.951 162 549Z" fill="#2F2D2D"/>
<path d="M818 363C818.99 363.66 819.98 364.32 821 365C819.213 365.864 817.42 366.716 815.625 367.562C814.627 368.038 813.63 368.514 812.602 369.004C811.743 369.333 810.885 369.661 810 370C809.34 369.67 808.68 369.34 808 369C809.329 366.343 810.701 365.979 813.375 364.75C814.166 364.374 814.958 363.997 815.773 363.609C816.508 363.408 817.243 363.207 818 363Z" fill="#262324"/>
<path d="M770 327C771.439 327.453 772.876 327.912 774.312 328.375C775.113 328.63 775.914 328.885 776.738 329.148C779 330 779 330 782 332C779.533 332.883 778.361 333.131 775.859 332.223C775.163 331.84 774.467 331.457 773.75 331.062C773.044 330.682 772.337 330.302 771.609 329.91C771.078 329.61 770.547 329.309 770 329C770 328.34 770 327.68 770 327Z" fill="#211E1E"/>
<path d="M205.191 556.602C206.365 556.613 206.365 556.613 207.562 556.625C208.74 556.613 208.74 556.613 209.941 556.602C210.621 556.733 211.3 556.865 212 557C212.66 557.99 213.32 558.98 214 560C209.38 560 204.76 560 200 560C203 557 203 557 205.191 556.602Z" fill="#2C2A2A"/>
<path d="M619.125 367.25C620.181 367.629 620.181 367.629 621.258 368.016C623 369 623 369 624 372C623.051 371.814 622.103 371.629 621.125 371.437C618.101 370.713 618.101 370.713 616 372C615.67 371.01 615.34 370.02 615 369C614.01 368.34 613.02 367.68 612 367C615.33 365.89 615.978 366.066 619.125 367.25Z" fill="#252323"/>
<path d="M100 692C100 692.66 100 693.32 100 694C100.66 694.33 101.32 694.66 102 695C97.3098 694.434 92.655 693.815 88 693C88 692.67 88 692.34 88 692C92.2557 690.839 95.6835 691.238 100 692Z" fill="#2A2828"/>
<path d="M64 686C72.5714 685.857 72.5714 685.857 76 687C76 687.66 76 688.32 76 689C76.66 689.33 77.32 689.66 78 690C76.2277 689.717 74.4572 689.423 72.6875 689.125C71.2083 688.881 71.2083 688.881 69.6992 688.633C67 688 67 688 64 686Z" fill="#2C2B2A"/>
<path d="M1263 657C1263.27 657.577 1263.54 658.155 1263.81 658.75C1264.93 661.062 1264.93 661.062 1266.69 663C1268 665 1268 665 1267.58 667.125C1267.39 667.744 1267.2 668.363 1267 669C1261.94 662.926 1261.94 662.926 1262.19 659.062C1262.46 658.382 1262.72 657.701 1263 657Z" fill="#211F1F"/>
<path d="M1176 627C1176 632 1176 632 1173.62 634.5C1172.33 635.737 1172.33 635.737 1171 637C1170.34 637.66 1169.68 638.32 1169 639C1169.55 635.625 1170.05 633.918 1172 631C1172.66 631 1173.32 631 1174 631C1174 630.01 1174 629.02 1174 628C1174.66 627.67 1175.32 627.34 1176 627Z" fill="#272525"/>
<path d="M299 578C303.833 578.414 305.827 580.464 309 584C306 584 306 584 303 582C302.01 582 301.02 582 300 582C300.33 581.34 300.66 580.68 301 580C300.34 580 299.68 580 299 580C299 579.34 299 578.68 299 578Z" fill="#232122"/>
<path d="M1096 433C1099.34 434.381 1101.22 435.82 1103 439C1102.69 441.25 1102.69 441.25 1102 443C1101.34 443 1100.68 443 1100 443C1099.86 442.402 1099.71 441.804 1099.56 441.188C1099.11 439.438 1098.57 437.713 1098 436C1097.34 436 1096.68 436 1096 436C1096 435.01 1096 434.02 1096 433Z" fill="#262424"/>
<path d="M609 596C612.1 596.332 613.055 597.055 615.312 599.312C617 602 617 602 616.605 604.168C616.406 604.773 616.206 605.377 616 606C614.83 604.523 613.664 603.043 612.5 601.562C611.85 600.739 611.201 599.915 610.531 599.066C609 597 609 597 609 596Z" fill="#211F1E"/>
<path d="M810 462C810.33 462 810.66 462 811 462C811.25 464.25 811.25 464.25 811 467C809 469.312 809 469.312 807 471C806.34 470.34 805.68 469.68 805 469C805.808 467.831 806.622 466.664 807.438 465.5C807.89 464.85 808.342 464.201 808.809 463.531C809.202 463.026 809.595 462.521 810 462Z" fill="#201F1E"/>
<path d="M27 377C28.32 377.66 29.64 378.32 31 379C28.1382 382.163 24.79 384.105 21 386C22.5271 382.564 24.5993 379.881 27 377Z" fill="#252223"/>
<path d="M1040 360C1042.94 361.188 1042.94 361.188 1046 363C1046.88 365.688 1046.88 365.688 1047 368C1046.01 368 1045.02 368 1044 368C1040 363.771 1040 363.771 1040 360Z" fill="#353232"/>
<path d="M89 690C88.67 690.66 88.34 691.32 88 692C86.68 692 85.36 692 84 692C84.33 693.32 84.66 694.64 85 696C84.34 696 83.68 696 83 696C82.67 695.01 82.34 694.02 82 693C82.33 692.34 82.66 691.68 83 691C81.68 690.67 80.36 690.34 79 690C82.6954 689.05 85.3046 689.05 89 690Z" fill="#302E2E"/>
<path d="M86 608C86 609.32 86 610.64 86 612C86.66 612.33 87.32 612.66 88 613C86.02 613.33 84.04 613.66 82 614C82 613.34 82 612.68 82 612C81.01 611.34 80.02 610.68 79 610C83.75 608 83.75 608 86 608Z" fill="#363333"/>
<path d="M820 587C820.33 587.99 820.66 588.98 821 590C819.785 592.043 819.785 592.043 818.062 594.188C817.497 594.903 816.931 595.618 816.348 596.355C815.903 596.898 815.458 597.441 815 598C814.67 597.01 814.34 596.02 814 595C815.215 592.957 815.215 592.957 816.938 590.812C817.503 590.097 818.069 589.382 818.652 588.645C819.097 588.102 819.542 587.559 820 587Z" fill="#201E1E"/>
<path d="M553 382C555.5 384.312 555.5 384.312 558 387C558 387.99 558 388.98 558 390C557.01 390 556.02 390 555 390C553.235 386.912 553 385.767 553 382Z" fill="#221F20"/>
<path d="M1072 626C1072.66 627.32 1073.32 628.64 1074 630C1073.34 630 1072.68 630 1072 630C1071.34 631.32 1070.68 632.64 1070 634C1069.34 633.67 1068.68 633.34 1068 633C1069.07 630.085 1069.78 628.222 1072 626Z" fill="#232121"/>
<path d="M14 587C15.4607 587.451 16.9185 587.911 18.375 588.375C19.1871 588.63 19.9992 588.885 20.8359 589.148C23 590 23 590 25 592C21.1246 592.176 18.2448 592.283 15 590C14.67 589.01 14.34 588.02 14 587Z" fill="#242323"/>
<path d="M242 562C242 562.66 242 563.32 242 564C245.465 563.505 245.465 563.505 249 563C249.33 563.99 249.66 564.98 250 566C242.575 565.01 242.575 565.01 235 564C235 563.67 235 563.34 235 563C239.75 562 239.75 562 242 562Z" fill="#2F2D2C"/>
<path d="M98 536C100.729 536.033 103.297 536.564 106 537C106.33 537.99 106.66 538.98 107 540C103.37 539.34 99.74 538.68 96 538C96.66 537.34 97.32 536.68 98 536Z" fill="#292727"/>
<path d="M15 482C15.66 482 16.32 482 17 482C20.2227 487.176 20.2227 487.176 21 489C20.67 489.99 20.34 490.98 20 492C19.158 490.902 18.3267 489.797 17.5 488.688C17.0359 488.073 16.5719 487.458 16.0938 486.824C15 485 15 485 15 482Z" fill="#222020"/>
<path d="M14 395C14.33 395.66 14.66 396.32 15 397C15.66 397.33 16.32 397.66 17 398C15.8483 400.468 14.9522 402.048 13 404C12.34 403.67 11.68 403.34 11 403C12.875 397.25 12.875 397.25 14 395Z" fill="#201E1F"/>
<path d="M797 338C800.3 338.99 803.6 339.98 807 341C802.821 343.09 802.196 343.166 798 342C797.67 340.68 797.34 339.36 797 338Z" fill="#252121"/>
<path d="M718 234C719.737 236.605 720.691 238.583 721.688 241.5C721.959 242.273 722.231 243.047 722.512 243.844C723 246 723 246 722 249C721.01 245.7 720.02 242.4 719 239C718.34 239 717.68 239 717 239C717.33 237.35 717.66 235.7 718 234Z" fill="#322F30"/>
<path d="M795 618C796.65 618.33 798.3 618.66 800 619C798.427 622.147 795.721 623.8 793 626C793.667 623.333 794.333 620.667 795 618Z" fill="#242122"/>
<path d="M1142 495C1144.56 497.25 1144.56 497.25 1147 500C1146.81 502.312 1146.81 502.312 1146 504C1145.38 503.361 1144.76 502.721 1144.12 502.062C1142.17 499.961 1142.17 499.961 1140 499C1140.66 497.68 1141.32 496.36 1142 495Z" fill="#201E1E"/>
<path d="M285 339C289.29 339.33 293.58 339.66 298 340C298 340.33 298 340.66 298 341C292.06 341.495 292.06 341.495 286 342C285.67 341.01 285.34 340.02 285 339Z" fill="#322E2E"/>
<path d="M712 220C712.66 220 713.32 220 714 220C714.66 222.31 715.32 224.62 716 227C713.525 226.01 713.525 226.01 711 225C711.33 223.35 711.66 221.7 712 220Z" fill="#292728"/>
<path d="M727 572C727.33 572.99 727.66 573.98 728 575C724.787 580.738 724.787 580.738 721 582C722.652 578.421 724.783 575.252 727 572Z" fill="#222021"/>
<path d="M259 566C260.438 566.115 261.876 566.242 263.312 566.375C264.513 566.479 264.513 566.479 265.738 566.586C268 567 268 567 271 569C268.03 569 265.06 569 262 569C262 568.34 262 567.68 262 567C261.01 566.67 260.02 566.34 259 566Z" fill="#151313"/>
<path d="M5 448C6.485 448.99 6.485 448.99 8 450C7.67 453.63 7.34 457.26 7 461C6.67 461 6.34 461 6 461C5.67 456.71 5.34 452.42 5 448Z" fill="#343231"/>
<path d="M1053 374C1053.99 374 1054.98 374 1056 374C1058.25 376.812 1058.25 376.812 1060 380C1059.67 380.99 1059.34 381.98 1059 383C1057.02 380.03 1055.04 377.06 1053 374Z" fill="#232020"/>
<path d="M1251 645C1255 646 1255 646 1257 649C1256.67 650.32 1256.34 651.64 1256 653C1253.53 649.04 1253.53 649.04 1251 645Z" fill="#272424"/>
<path d="M697 573C699.5 575.312 699.5 575.312 702 578C702 578.99 702 579.98 702 581C701.34 581 700.68 581 700 581C697.256 578.045 697 577.225 697 573Z" fill="#221F20"/>
<path d="M117 540C117 540.66 117 541.32 117 542C117.99 542.33 118.98 542.66 120 543C111.429 542.143 111.429 542.143 108 540C111.378 539.155 113.675 538.892 117 540Z" fill="#2F2D2D"/>
<path d="M712 488C713.562 489.25 713.562 489.25 715 491C714.688 493.188 714.688 493.188 714 495C713.01 494.67 712.02 494.34 711 494C711.33 492.02 711.66 490.04 712 488Z" fill="#272524"/>
<path d="M297 415C297.33 415.99 297.66 416.98 298 418C294.7 418 291.4 418 288 418C288 417.34 288 416.68 288 416C291.196 414.935 293.657 414.926 297 415Z" fill="#2D2B2B"/>
<path d="M277 697C280.3 697.33 283.6 697.66 287 698C287 698.33 287 698.66 287 699C281.06 699.495 281.06 699.495 275 700C275.66 699.01 276.32 698.02 277 697Z" fill="#363333"/>
<path d="M1328 610C1329.69 611.645 1331.35 613.313 1333 615C1333 615.33 1333 615.66 1333 616C1331.35 616 1329.7 616 1328 616C1328 614.02 1328 612.04 1328 610Z" fill="#242221"/>
<path d="M397 603C397.33 603 397.66 603 398 603C398.082 607.161 397.982 610.947 397 615C396.67 615 396.34 615 396 615C395.777 613.565 395.572 612.127 395.375 610.688C395.259 609.887 395.143 609.086 395.023 608.262C395 606 395 606 397 603Z" fill="#2E2C2C"/>
<path d="M1096 591C1097.32 591.66 1098.64 592.32 1100 593C1098.35 594.65 1096.7 596.3 1095 598C1095 595.379 1095.31 593.491 1096 591Z" fill="#222020"/>
<path d="M190 556C185.839 556.082 182.053 555.982 178 555C178 554.67 178 554.34 178 554C183.151 552.712 185.577 553.051 190 556Z" fill="#2D2B2B"/>
<path d="M315 501C319.95 501.99 319.95 501.99 325 503C322 505 322 505 319.312 504.625C318.549 504.419 317.786 504.213 317 504C317 503.34 317 502.68 317 502C316.34 501.67 315.68 501.34 315 501Z" fill="#2B2928"/>
<path d="M701 457C701.66 457.33 702.32 457.66 703 458C703.75 460.375 703.75 460.375 704 463C703.01 464.485 703.01 464.485 702 466C700.381 463.428 699.956 462.323 700.375 459.25C700.581 458.507 700.788 457.765 701 457Z" fill="#242121"/>
<path d="M1195 427C1199 431.625 1199 431.625 1199 435C1197.35 434.01 1195.7 433.02 1194 432C1194.33 430.35 1194.66 428.7 1195 427Z" fill="#232020"/>
<path d="M996 340C1000.29 340 1004.58 340 1009 340C1008.67 340.99 1008.34 341.98 1008 343C1002.06 342.01 1002.06 342.01 996 341C996 340.67 996 340.34 996 340Z" fill="#211E1F"/>
<path d="M701 252C701.33 252 701.66 252 702 252C702.33 254.64 702.66 257.28 703 260C701.68 260.33 700.36 260.66 699 261C699.66 258.03 700.32 255.06 701 252Z" fill="#2A2829"/>
<path d="M303 618C303.66 618.33 304.32 618.66 305 619C305 619.99 305 620.98 305 622C302.69 622 300.38 622 298 622C299.65 620.68 301.3 619.36 303 618Z" fill="#272525"/>
<path d="M1275 540C1279.88 544.75 1279.88 544.75 1281 547C1279.12 546.688 1279.12 546.688 1277 546C1275 543 1275 543 1275 540Z" fill="#242221"/>
<path d="M44 514C46.875 514.25 46.875 514.25 50 515C51.375 517.062 51.375 517.062 52 519C48.625 517.814 46.3528 516.724 44 514Z" fill="#272525"/>
<path d="M25 496C25.99 496.33 26.98 496.66 28 497C28 497.66 28 498.32 28 499C28.66 499 29.32 499 30 499C29.67 500.32 29.34 501.64 29 503C25 498.25 25 498.25 25 496Z" fill="#232021"/>
<path d="M284 494C287.3 494.33 290.6 494.66 294 495C294 495.33 294 495.66 294 496C289.982 496.841 286.982 497.054 283 496C283.33 495.34 283.66 494.68 284 494Z" fill="#262424"/>
<path d="M369.125 435.187C369.744 435.456 370.363 435.724 371 436C371.33 436.99 371.66 437.98 372 439C371.01 439.33 370.02 439.66 369 440C369 439.34 369 438.68 369 438C367.35 437.67 365.7 437.34 364 437C367 435 367 435 369.125 435.187Z" fill="#282526"/>
<path d="M483 427C483.66 427 484.32 427 485 427C486.625 429.5 486.625 429.5 488 432C487.34 432.66 486.68 433.32 486 434C484.68 432.02 483.36 430.04 482 428C482.33 427.67 482.66 427.34 483 427Z" fill="#221F20"/>
<path d="M661 387C666.538 386.631 666.538 386.631 668.875 388.5C669.246 388.995 669.618 389.49 670 390C669.01 390.495 669.01 390.495 668 391C665.64 390.064 663.304 389.067 661 388C661 387.67 661 387.34 661 387Z" fill="#262423"/>
<path d="M805 371C802.314 373.686 799.624 374.06 796 375C796.33 374.01 796.66 373.02 797 372C799.709 370.646 802.009 370.935 805 371Z" fill="#292626"/>
<path d="M584 353C585.65 353 587.3 353 589 353C589.33 353.66 589.66 354.32 590 355C589.34 355 588.68 355 588 355C587.34 356.32 586.68 357.64 586 359C584 355.25 584 355.25 584 353Z" fill="#3A3738"/>
<path d="M418 344C419.65 344 421.3 344 423 344C423 345.98 423 347.96 423 350C421.312 348.355 419.646 346.687 418 345C418 344.67 418 344.34 418 344Z" fill="#232021"/>
<path d="M153 703C156.63 703 160.26 703 164 703C164 703.33 164 703.66 164 704C160.37 704 156.74 704 153 704C153 703.67 153 703.34 153 703Z" fill="#302D2E"/>
<path d="M80 533C82.31 533.66 84.62 534.32 87 535C84.5094 535.687 82.6211 536 80 536C80 535.01 80 534.02 80 533Z" fill="#363333"/>
<path d="M1088 592C1088.99 592.33 1089.98 592.66 1091 593C1091.33 593.99 1091.66 594.98 1092 596C1090.68 596.33 1089.36 596.66 1088 597C1088 595.35 1088 593.7 1088 592Z" fill="#312D2D"/>
<path d="M130 700C130.66 700.33 131.32 700.66 132 701C132 701.99 132 702.98 132 704C131.01 703.67 130.02 703.34 129 703C129.33 702.01 129.66 701.02 130 700Z" fill="#333030"/>
<path d="M1045 657C1045.66 657.66 1046.32 658.32 1047 659C1046.01 660.485 1046.01 660.485 1045 662C1044.01 661.67 1043.02 661.34 1042 661C1042.66 661 1043.32 661 1044 661C1044.33 659.68 1044.66 658.36 1045 657Z" fill="#343131"/>
<path d="M752 528C753.32 528.33 754.64 528.66 756 529C754.02 529.99 754.02 529.99 752 531C752 530.01 752 529.02 752 528Z" fill="#302E2D"/>
<path d="M996 361C996.99 361.33 997.98 361.66 999 362C999.33 362.99 999.66 363.98 1000 365C998.68 365 997.36 365 996 365C996 363.68 996 362.36 996 361Z" fill="#333030"/>
<path d="M1141 681C1141.66 682.32 1142.32 683.64 1143 685C1142.01 685.33 1141.02 685.66 1140 686C1140.33 684.35 1140.66 682.7 1141 681Z" fill="#333031"/>
<path d="M85 693C85.99 693 86.98 693 88 693C87.67 693.99 87.34 694.98 87 696C86.34 695.01 85.68 694.02 85 693Z" fill="#353332"/>
<path d="M1043 656C1043.33 656.66 1043.66 657.32 1044 658C1043.34 658.66 1042.68 659.32 1042 660C1042 657 1042 657 1043 656Z" fill="#353332"/>
<path d="M1088 599C1088.99 599.495 1088.99 599.495 1090 600C1089.67 600.99 1089.34 601.98 1089 603C1088.67 601.68 1088.34 600.36 1088 599Z" fill="#302C2C"/>
<path d="M312 595C312.66 595 313.32 595 314 595C314 596.65 314 598.3 314 600C312 596.125 312 596.125 312 595Z" fill="#302D2D"/>
<path d="M275 573C275.66 573.99 276.32 574.98 277 576C275.68 575.34 274.36 574.68 273 574C273.66 573.67 274.32 573.34 275 573Z" fill="#312E2E"/>
<path d="M240 566C241.65 566 243.3 566 245 566C244.67 566.66 244.34 567.32 244 568C242.68 567.34 241.36 566.68 240 566Z" fill="#322E2D"/>
<path d="M105 541C107.475 541.495 107.475 541.495 110 542C109.01 542.33 108.02 542.66 107 543C106.34 542.34 105.68 541.68 105 541Z" fill="#322F2E"/>
<path d="M505 460C505.66 461.32 506.32 462.64 507 464C506.34 464 505.68 464 505 464C505 462.68 505 461.36 505 460Z" fill="#2F2B2C"/>
<path d="M1189 415C1189.66 415 1190.32 415 1191 415C1191.33 416.32 1191.66 417.64 1192 419C1190.98 418.021 1189.98 417.02 1189 416C1189 415.67 1189 415.34 1189 415Z" fill="#302D2D"/>
<path d="M465 407C465.33 408.32 465.66 409.64 466 411C465.34 410.67 464.68 410.34 464 410C464.33 409.01 464.66 408.02 465 407Z" fill="#2E2B2C"/>
<path d="M660 726C660.33 726 660.66 726 661 726C661 727.65 661 729.3 661 731C660.67 731 660.34 731 660 731C660 729.35 660 727.7 660 726Z" fill="#332F30"/>
<path d="M1191 612C1191.33 612.99 1191.66 613.98 1192 615C1191.01 615.495 1191.01 615.495 1190 616C1190.33 614.68 1190.66 613.36 1191 612Z" fill="#322E2F"/>
<path d="M1190 609C1190.66 609.33 1191.32 609.66 1192 610C1191.67 610.66 1191.34 611.32 1191 612C1190.34 611.67 1189.68 611.34 1189 611C1189.33 610.34 1189.66 609.68 1190 609Z" fill="#302D2D"/>
<path d="M728 560C728.99 560.495 728.99 560.495 730 561C729.01 562.485 729.01 562.485 728 564C728 562.68 728 561.36 728 560Z" fill="#2F2A29"/>
<path d="M731 560C731.66 560 732.32 560 733 560C732.67 560.99 732.34 561.98 732 563C731.67 562.01 731.34 561.02 731 560Z" fill="#2E2B2B"/>
<path d="M128 547C129.65 547 131.3 547 133 547C133 547.33 133 547.66 133 548C131.35 548 129.7 548 128 548C128 547.67 128 547.34 128 547Z" fill="#312E2F"/>
<path d="M319 498C319.66 498 320.32 498 321 498C321 498.99 321 499.98 321 501C320.34 500.67 319.68 500.34 319 500C319 499.34 319 498.68 319 498Z" fill="#322F2F"/>
<path d="M1137 493C1137.66 493.66 1138.32 494.32 1139 495C1138.01 495 1137.02 495 1136 495C1136.33 494.34 1136.66 493.68 1137 493Z" fill="#322E2E"/>
<path d="M1104 448C1104.66 448.66 1105.32 449.32 1106 450C1105.34 450.66 1104.68 451.32 1104 452C1104 450.68 1104 449.36 1104 448Z" fill="#302D2D"/>
<path d="M473 419C473.66 419 474.32 419 475 419C474.67 419.99 474.34 420.98 474 422C473.67 421.01 473.34 420.02 473 419Z" fill="#2F2C2C"/>
<path d="M202 407C203.65 407 205.3 407 207 407C207 407.33 207 407.66 207 408C205.35 408 203.7 408 202 408C202 407.67 202 407.34 202 407Z" fill="#2E2A2A"/>
<path d="M660 780C661 784 661 784 661 784L660 780Z" fill="#393637"/>
<path d="M660 748C661 752 661 752 661 752L660 748Z" fill="#343031"/>
<path d="M660 684C661 688 661 688 661 688L660 684Z" fill="#312E2F"/>
<path d="M1265 668C1265.66 668.66 1266.32 669.32 1267 670C1266.01 669.67 1265.02 669.34 1264 669C1264.33 668.67 1264.66 668.34 1265 668Z" fill="#332F2E"/>
<path d="M640 640C640.99 640.495 640.99 640.495 642 641C641.34 641.66 640.68 642.32 640 643C640 642.01 640 641.02 640 640Z" fill="#322C2D"/>
<path d="M1240 635C1240.99 635.495 1240.99 635.495 1242 636C1241.67 636.66 1241.34 637.32 1241 638C1240.67 637.01 1240.34 636.02 1240 635Z" fill="#322E2E"/>
<path d="M158 626C158.66 626.66 159.32 627.32 160 628C159.01 627.67 158.02 627.34 157 627C157.33 626.67 157.66 626.34 158 626Z" fill="#302D2D"/>
<path d="M137 624C141 625 141 625 141 625L137 624Z" fill="#2E2A2B"/>
<path d="M30 592C30.99 592 31.98 592 33 592C32.67 592.66 32.34 593.32 32 594C31.34 593.34 30.68 592.68 30 592Z" fill="#322F2E"/>
<path d="M224 563C228 564 228 564 228 564L224 563Z" fill="#2F2D2D"/>
<path d="M752 535C752.99 535.495 752.99 535.495 754 536C753.34 536.66 752.68 537.32 752 538C752 537.01 752 536.02 752 535Z" fill="#2F2B2C"/>
<path d="M524 486C524.66 486.66 525.32 487.32 526 488C525.01 487.67 524.02 487.34 523 487C523.33 486.67 523.66 486.34 524 486Z" fill="#302C2D"/>
<path d="M214 480C218 481 218 481 218 481L214 480Z" fill="#2D2929"/>
<path d="M134 464C134.99 464.33 135.98 464.66 137 465C136.01 465 135.02 465 134 465C134 464.67 134 464.34 134 464Z" fill="#302D2D"/>
<path d="M696 457C696.66 457.66 697.32 458.32 698 459C697.01 459.495 697.01 459.495 696 460C696 459.01 696 458.02 696 457Z" fill="#312D2D"/>
<path d="M697 453C698 457 698 457 698 457L697 453Z" fill="#302C2C"/>
<path d="M1092 434C1092.33 434.66 1092.66 435.32 1093 436C1092.01 435.67 1091.02 435.34 1090 435C1090.66 434.67 1091.32 434.34 1092 434Z" fill="#322E2E"/>
<path d="M336 429C336.99 429 337.98 429 339 429C338.67 429.66 338.34 430.32 338 431C337.34 430.34 336.68 429.68 336 429Z" fill="#322E2E"/>
<path d="M947 429C947.99 429.33 948.98 429.66 950 430C949.01 430 948.02 430 947 430C947 429.67 947 429.34 947 429Z" fill="#312F2E"/>
<path d="M307 421C307.66 421.66 308.32 422.32 309 423C308.01 423.495 308.01 423.495 307 424C307 423.01 307 422.02 307 421Z" fill="#312E2E"/>
<path d="M164 407C168 408 168 408 168 408L164 407Z" fill="#2F2C2B"/>
<path d="M157 407C157.99 407 158.98 407 160 407C159.67 407.66 159.34 408.32 159 409C158.34 408.34 157.68 407.68 157 407Z" fill="#2E2C2C"/>
<path d="M1233 402C1233.66 402 1234.32 402 1235 402C1235 402.66 1235 403.32 1235 404C1234.34 404 1233.68 404 1233 404C1233 403.34 1233 402.68 1233 402Z" fill="#302C2B"/>
<path d="M416 345C416.99 345.495 416.99 345.495 418 346C417.34 346.66 416.68 347.32 416 348C416 347.01 416 346.02 416 345Z" fill="#343032"/>
<path d="M1024 340C1025 344 1025 344 1025 344L1024 340Z" fill="#363433"/>
<path d="M147 332C151 333 151 333 151 333L147 332Z" fill="#343131"/>
<path d="M948 1013C948.99 1013.5 948.99 1013.5 950 1014C949.01 1014.5 949.01 1014.5 948 1015C948 1014.34 948 1013.68 948 1013Z" fill="#737474"/>
<path d="M146 702C149 703 149 703 149 703L146 702Z" fill="#332F2F"/>
<path d="M138 701C138.66 701.66 139.32 702.32 140 703C139.34 703 138.68 703 138 703C138 702.34 138 701.68 138 701Z" fill="#322F2E"/>
<path d="M273 701C273.99 701.495 273.99 701.495 275 702C274.01 702.495 274.01 702.495 273 703C273 702.34 273 701.68 273 701Z" fill="#322E2E"/>
<path d="M133 701C136 702 136 702 136 702L133 701Z" fill="#33302F"/>
<path d="M282 700C285 701 285 701 285 701L282 700Z" fill="#32302E"/>
<path d="M14 670C14.33 670.66 14.66 671.32 15 672C14.34 671.67 13.68 671.34 13 671C13.33 670.67 13.66 670.34 14 670Z" fill="#383735"/>
<path d="M651 654C651.66 654.66 652.32 655.32 653 656C652.34 656 651.68 656 651 656C651 655.34 651 654.68 651 654Z" fill="#302C2B"/>
<path d="M1349 634C1349.66 634 1350.32 634 1351 634C1350.67 634.66 1350.34 635.32 1350 636C1349.67 635.34 1349.34 634.68 1349 634Z" fill="#332F2F"/>
<path d="M274 624C274.99 624.495 274.99 624.495 276 625C275.01 625.495 275.01 625.495 274 626C274 625.34 274 624.68 274 624Z" fill="#302D2D"/>
<path d="M142 624C142.99 624.495 142.99 624.495 144 625C143.01 625.495 143.01 625.495 142 626C142 625.34 142 624.68 142 624Z" fill="#2C2A2A"/>
<path d="M616 608C616.66 608.66 617.32 609.32 618 610C617.34 610 616.68 610 616 610C616 609.34 616 608.68 616 608Z" fill="#302D2C"/>
<path d="M1104 578C1104.66 578.66 1105.32 579.32 1106 580C1105.34 580 1104.68 580 1104 580C1104 579.34 1104 578.68 1104 578Z" fill="#2E2B2C"/>
<path d="M592 577C592.99 577.495 592.99 577.495 594 578C593.01 578.495 593.01 578.495 592 579C592 578.34 592 577.68 592 577Z" fill="#302C2D"/>
<path d="M578 557C578.66 557.66 579.32 558.32 580 559C579.34 559 578.68 559 578 559C578 558.34 578 557.68 578 557Z" fill="#2E2A2A"/>
<path d="M563 538C563.66 538 564.32 538 565 538C564.67 538.66 564.34 539.32 564 540C563.67 539.34 563.34 538.68 563 538Z" fill="#2F2C2B"/>
<path d="M1136 535C1136.66 535.66 1137.32 536.32 1138 537C1137.34 537 1136.68 537 1136 537C1136 536.34 1136 535.68 1136 535Z" fill="#302C2E"/>
<path d="M1045 533C1045.33 533.66 1045.66 534.32 1046 535C1045.34 534.67 1044.68 534.34 1044 534C1044.33 533.67 1044.66 533.34 1045 533Z" fill="#403F3E"/>
<path d="M302 496C305 497 305 497 305 497L302 496Z" fill="#2E2D2C"/>
<path d="M1128 484C1128.66 484 1129.32 484 1130 484C1129.67 484.66 1129.34 485.32 1129 486C1128.67 485.34 1128.34 484.68 1128 484Z" fill="#312D2D"/>
<path d="M520 483C523 484 523 484 523 484L520 483Z" fill="#302D2B"/>
<path d="M1128 481C1128.66 481.66 1129.32 482.32 1130 483C1129.34 483 1128.68 483 1128 483C1128 482.34 1128 481.68 1128 481Z" fill="#2F2D2C"/>
<path d="M520 480C520.66 480.66 521.32 481.32 522 482C521.34 482 520.68 482 520 482C520 481.34 520 480.68 520 480Z" fill="#2D2A2A"/>
<path d="M8 474C8.66 474.66 9.32 475.32 10 476C9.34 476 8.68 476 8 476C8 475.34 8 474.68 8 474Z" fill="#363232"/>
<path d="M1101 443C1101.66 443.66 1102.32 444.32 1103 445C1102.34 445 1101.68 445 1101 445C1101 444.34 1101 443.68 1101 443Z" fill="#2F2B2B"/>
<path d="M376 443C379 444 379 444 379 444L376 443Z" fill="#373534"/>
<path d="M490 442C490.99 442.495 490.99 442.495 492 443C491.01 443.495 491.01 443.495 490 444C490 443.34 490 442.68 490 442Z" fill="#2F2C2D"/>
<path d="M946 427C949 428 949 428 949 428L946 427Z" fill="#302E2D"/>
<path d="M476 422C476.66 422.66 477.32 423.32 478 424C477.34 424 476.68 424 476 424C476 423.34 476 422.68 476 422Z" fill="#312D2D"/>
<path d="M313 423C316 424 316 424 316 424L313 423Z" fill="#2F2D2D"/>
<path d="M289 418C289.33 418.66 289.66 419.32 290 420C289.34 419.67 288.68 419.34 288 419C288.33 418.67 288.66 418.34 289 418Z" fill="#312D2E"/>
<path d="M108 415C111 416 111 416 111 416L108 415Z" fill="#302D2E"/>
<path d="M127 411C127.99 411.495 127.99 411.495 129 412C128.01 412.495 128.01 412.495 127 413C127 412.34 127 411.68 127 411Z" fill="#322F2F"/>
<path d="M177 407C180 408 180 408 180 408L177 407Z" fill="#332F2E"/>
<path d="M853 401C853.33 401.66 853.66 402.32 854 403C853.34 402.67 852.68 402.34 852 402C852.33 401.67 852.66 401.34 853 401Z" fill="#312E2D"/>
<path d="M1066 394C1066.33 394.66 1066.66 395.32 1067 396C1066.34 395.67 1065.68 395.34 1065 395C1065.33 394.67 1065.66 394.34 1066 394Z" fill="#2F2C2B"/>
<path d="M8 394C8.99 394.495 8.99 394.495 10 395C9.01 395.495 9.01 395.495 8 396C8 395.34 8 394.68 8 394Z" fill="#363332"/>
<path d="M443 379C443.33 379.66 443.66 380.32 444 381C443.34 380.67 442.68 380.34 442 380C442.33 379.67 442.66 379.34 443 379Z" fill="#2F2C2C"/>
<path d="M440 376C440.66 376.66 441.32 377.32 442 378C441.34 378 440.68 378 440 378C440 377.34 440 376.68 440 376Z" fill="#302D2D"/>
<path d="M624 374C624.66 374 625.32 374 626 374C625.67 374.66 625.34 375.32 625 376C624.67 375.34 624.34 374.68 624 374Z" fill="#343030"/>
<path d="M33 368C36 369 36 369 36 369L33 368Z" fill="#353333"/>
<path d="M42 360C42.66 360 43.32 360 44 360C43.67 360.66 43.34 361.32 43 362C42.67 361.34 42.34 360.68 42 360Z" fill="#373434"/>
<path d="M67 348C70 349 70 349 70 349L67 348Z" fill="#373433"/>
<path d="M68 345C68.99 345.495 68.99 345.495 70 346C69.01 346.495 69.01 346.495 68 347C68 346.34 68 345.68 68 345Z" fill="#373434"/>
<path d="M80 343C80.66 343.66 81.32 344.32 82 345C81.34 345 80.68 345 80 345C80 344.34 80 343.68 80 343Z" fill="#383435"/>
<path d="M1028 342C1028.66 342.66 1029.32 343.32 1030 344C1029.34 344 1028.68 344 1028 344C1028 343.34 1028 342.68 1028 342Z" fill="#333131"/>
<path d="M85 341C85.66 341 86.32 341 87 341C86.67 341.66 86.34 342.32 86 343C85.67 342.34 85.34 341.68 85 341Z" fill="#383636"/>
<path d="M286 337C289 338 289 338 289 338L286 337Z" fill="#343030"/>
<path d="M277 336C280 337 280 337 280 337L277 336Z" fill="#333030"/>
<path d="M658 321C658.66 321 659.32 321 660 321C659.67 321.66 659.34 322.32 659 323C658.67 322.34 658.34 321.68 658 321Z" fill="#363333"/>
<path d="M679 313C679.33 313.66 679.66 314.32 680 315C679.34 314.67 678.68 314.34 678 314C678.33 313.67 678.66 313.34 679 313Z" fill="#322E2E"/>
<path d="M948 213C948.99 213.495 948.99 213.495 950 214C949.01 214.495 949.01 214.495 948 215C948 214.34 948 213.68 948 213Z" fill="#5E5E5D"/>
<path d="M1090 1003C1092 1004 1092 1004 1092 1004L1090 1003Z" fill="#737374"/>
<path d="M948 997C950 998 950 998 950 998L948 997Z" fill="#737373"/>
<path d="M1090 979C1092 980 1092 980 1092 980L1090 979Z" fill="#717172"/>
<path d="M1090 955C1092 956 1092 956 1092 956L1090 955Z" fill="#6F6F70"/>
<path d="M1090 931C1092 932 1092 932 1092 932L1090 931Z" fill="#6C6C6E"/>
<path d="M1090 891C1092 892 1092 892 1092 892L1090 891Z" fill="#676867"/>
<path d="M948 885C950 886 950 886 950 886L948 885Z" fill="#686869"/>
<path d="M1090 883C1092 884 1092 884 1092 884L1090 883Z" fill="#666666"/>
<path d="M1090 843C1092 844 1092 844 1092 844L1090 843Z" fill="#616062"/>
<path d="M948 821C950 822 950 822 950 822L948 821Z" fill="#5F5E5F"/>
<path d="M948 805C950 806 950 806 950 806L948 805Z" fill="#5C5C5D"/>
<path d="M1090 795C1092 796 1092 796 1092 796L1090 795Z" fill="#595859"/>
<path d="M721 788C723 789 723 789 723 789L721 788Z" fill="#3A3637"/>
<path d="M1090 771C1092 772 1092 772 1092 772L1090 771Z" fill="#555453"/>
<path d="M84 770C86 771 86 771 86 771L84 770Z" fill="#545454"/>
<path d="M948 765C950 766 950 766 950 766L948 765Z" fill="#565656"/>
<path d="M1090 747C1092 748 1092 748 1092 748L1090 747Z" fill="#4C4B4C"/>
<path d="M1090 731C1092 732 1092 732 1092 732L1090 731Z" fill="#464545"/>
<path d="M948 717C950 718 950 718 950 718L948 717Z" fill="#4D4E4E"/>
<path d="M1090 715C1092 716 1092 716 1092 716L1090 715Z" fill="#3F3D3D"/>
<path d="M655 705C657 706 657 706 657 706L655 705Z" fill="#33302F"/>
<path d="M267 702C269 703 269 703 269 703L267 702Z" fill="#322E2E"/>
<path d="M143 702C145 703 145 703 145 703L143 702Z" fill="#343131"/>
<path d="M1090 699C1092 700 1092 700 1092 700L1090 699Z" fill="#373434"/>
<path d="M1016 695C1018 696 1018 696 1018 696L1016 695Z" fill="#3D3B39"/>
<path d="M76 691C78 692 78 692 78 692L76 691Z" fill="#323030"/>
<path d="M51 686C53 687 53 687 53 687L51 686Z" fill="#373433"/>
<path d="M54 685C56 686 56 686 56 686L54 685Z" fill="#343331"/>
<path d="M1025 680C1027 681 1027 681 1027 681L1025 680Z" fill="#353233"/>
<path d="M948 669C950 670 950 670 950 670L948 669Z" fill="#474646"/>
<path d="M948 661C950 662 950 662 950 662L948 661Z" fill="#474645"/>
<path d="M1047 656C1049 657 1049 657 1049 657L1047 656Z" fill="#31312F"/>
<path d="M1065 631C1067 632 1067 632 1067 632L1065 631Z" fill="#322F2D"/>
<path d="M997 619C999 620 999 620 999 620L997 619Z" fill="#413F40"/>
<path d="M624 619C626 620 626 620 626 620L624 619Z" fill="#312B2B"/>
<path d="M303 616C305 617 305 617 305 617L303 616Z" fill="#312F2E"/>
<path d="M948 613C950 614 950 614 950 614L948 613Z" fill="#444343"/>
<path d="M1332 610C1334 611 1334 611 1334 611L1332 610Z" fill="#312F2F"/>
<path d="M49 600C51 601 51 601 51 601L49 600Z" fill="#2E2B2C"/>
<path d="M1090 587C1092 588 1092 588 1092 588L1090 587Z" fill="#312D2E"/>
<path d="M706 577C708 578 708 578 708 578L706 577Z" fill="#2D2929"/>
<path d="M588 572C590 573 590 573 590 573L588 572Z" fill="#312E2C"/>
<path d="M1090 571C1092 572 1092 572 1092 572L1090 571Z" fill="#353031"/>
<path d="M585 571C587 572 587 572 587 572L585 571Z" fill="#312F2E"/>
<path d="M1090 563C1092 564 1092 564 1092 564L1090 563Z" fill="#363333"/>
<path d="M192 558C194 559 194 559 194 559L192 558Z" fill="#302E2D"/>
<path d="M1090 555C1092 556 1092 556 1092 556L1090 555Z" fill="#383434"/>
<path d="M147 550C149 551 149 551 149 551L147 550Z" fill="#302E2E"/>
<path d="M561 542C563 543 563 543 563 543L561 542Z" fill="#312E2E"/>
<path d="M1090 539C1092 540 1092 540 1092 540L1090 539Z" fill="#3A3737"/>
<path d="M97 539C99 540 99 540 99 540L97 539Z" fill="#333130"/>
<path d="M671 536C673 537 673 537 673 537L671 536Z" fill="#322F2E"/>
<path d="M77 532C79 533 79 533 79 533L77 532Z" fill="#343131"/>
<path d="M1090 531C1092 532 1092 532 1092 532L1090 531Z" fill="#3B3838"/>
<path d="M1261 519C1263 520 1263 520 1263 520L1261 519Z" fill="#302F2E"/>
<path d="M544 513C546 514 546 514 546 514L544 513Z" fill="#2E2B2B"/>
<path d="M350 512C352 513 352 513 352 513L350 512Z" fill="#312F2F"/>
<path d="M37 511C39 512 39 512 39 512L37 511Z" fill="#323030"/>
<path d="M24 503C26 504 26 504 26 504L24 503Z" fill="#343132"/>
<path d="M24 501C26 502 26 502 26 502L24 501Z" fill="#343131"/>
<path d="M1090 499C1092 500 1092 500 1092 500L1090 499Z" fill="#3C3838"/>
<path d="M529 493C531 494 531 494 531 494L529 493Z" fill="#2E2929"/>
<path d="M520 487C522 488 522 488 522 488L520 487Z" fill="#2F2C2B"/>
<path d="M226 481C228 482 228 482 228 482L226 481Z" fill="#312E2D"/>
<path d="M190 476C192 477 192 477 192 477L190 476Z" fill="#2F2B2B"/>
<path d="M172 473C174 474 174 474 174 474L172 473Z" fill="#312E2D"/>
<path d="M623 472C625 473 625 473 625 473L623 472Z" fill="#342F2E"/>
<path d="M170 472C172 473 172 473 172 473L170 472Z" fill="#302E2F"/>
<path d="M1294 467C1296 468 1296 468 1296 468L1294 467Z" fill="#312F2F"/>
<path d="M1090 467C1092 468 1092 468 1092 468L1090 467Z" fill="#373434"/>
<path d="M800 464C802 465 802 465 802 465L800 464Z" fill="#2F2C2C"/>
<path d="M142 464C144 465 144 465 144 465L142 464Z" fill="#2E2C2C"/>
<path d="M1102 447C1104 448 1104 448 1104 448L1102 447Z" fill="#32302E"/>
<path d="M1090 443C1092 444 1092 444 1092 444L1090 443Z" fill="#322F30"/>
<path d="M689 432C691 433 691 433 691 433L689 432Z" fill="#312E2D"/>
<path d="M329 427C331 428 331 428 331 428L329 427Z" fill="#302E2C"/>
<path d="M298 423C300 424 300 424 300 424L298 423Z" fill="#322D2E"/>
<path d="M301 420C303 421 303 421 303 421L301 420Z" fill="#312E2D"/>
<path d="M298 420C300 421 300 421 300 421L298 420Z" fill="#322F2F"/>
<path d="M296 419C298 420 298 420 298 420L296 419Z" fill="#312D2E"/>
<path d="M957 415C959 416 959 416 959 416L957 415Z" fill="#332E2E"/>
<path d="M248 411C250 412 250 412 250 412L248 411Z" fill="#32302F"/>
<path d="M848 408C850 409 850 409 850 409L848 408Z" fill="#322C2E"/>
<path d="M960 407C962 408 962 408 962 408L960 407Z" fill="#302E2D"/>
<path d="M208 407C210 408 210 408 210 408L208 407Z" fill="#312D2E"/>
<path d="M195 407C197 408 197 408 197 408L195 407Z" fill="#322E2E"/>
<path d="M172 407C174 408 174 408 174 408L172 407Z" fill="#312E2D"/>
<path d="M169 407C171 408 171 408 171 408L169 407Z" fill="#33302F"/>
<path d="M665 391C667 392 667 392 667 392L665 391Z" fill="#312D2E"/>
<path d="M642 381C644 382 644 382 644 382L642 381Z" fill="#312C2E"/>
<path d="M637 379C639 380 639 380 639 380L637 379Z" fill="#332F2E"/>
<path d="M1166 378C1168 379 1168 379 1168 379L1166 378Z" fill="#312D2C"/>
<path d="M1042 373C1044 374 1044 374 1044 374L1042 373Z" fill="#343131"/>
<path d="M622 373C624 374 624 374 624 374L622 373Z" fill="#322E2E"/>
<path d="M1263 360C1265 361 1265 361 1265 361L1263 360Z" fill="#343232"/>
<path d="M45 360C47 361 47 361 47 361L45 360Z" fill="#343232"/>
<path d="M373 355C375 356 375 356 375 356L373 355Z" fill="#373434"/>
<path d="M54 353C56 354 56 354 56 354L54 353Z" fill="#353434"/>
<path d="M589 352C591 353 591 353 591 353L589 352Z" fill="#332F30"/>
<path d="M361 352C363 353 363 353 363 353L361 352Z" fill="#383332"/>
<path d="M416 351C418 352 418 352 418 352L416 351Z" fill="#333130"/>
<path d="M822 346C824 347 824 347 824 347L822 346Z" fill="#353232"/>
<path d="M337 346C339 347 339 347 339 347L337 346Z" fill="#343130"/>
<path d="M819 345C821 346 821 346 821 346L819 345Z" fill="#343332"/>
<path d="M1024 338C1026 339 1026 339 1026 339L1024 338Z" fill="#383435"/>
<path d="M1363 336C1365 337 1365 337 1365 337L1363 336Z" fill="#3C3736"/>
<path d="M1285 336C1287 337 1287 337 1287 337L1285 336Z" fill="#363233"/>
<path d="M999 336C1001 337 1001 337 1001 337L999 336Z" fill="#3B3735"/>
<path d="M114 336C116 337 116 337 116 337L114 336Z" fill="#353333"/>
<path d="M177 331C179 332 179 332 179 332L177 331Z" fill="#322F2E"/>
<path d="M1090 323C1092 324 1092 324 1092 324L1090 323Z" fill="#3E3A3B"/>
<path d="M663 321C665 322 665 322 665 322L663 321Z" fill="#333130"/>
<path d="M1090 315C1092 316 1092 316 1092 316L1090 315Z" fill="#413E3E"/>
<path d="M1090 307C1092 308 1092 308 1092 308L1090 307Z" fill="#444242"/>
<path d="M1090 299C1092 300 1092 300 1092 300L1090 299Z" fill="#474646"/>
<path d="M1090 291C1092 292 1092 292 1092 292L1090 291Z" fill="#4B4949"/>
<path d="M1090 275C1092 276 1092 276 1092 276L1090 275Z" fill="#514D4E"/>
<path d="M1090 251C1092 252 1092 252 1092 252L1090 251Z" fill="#565556"/>
<path d="M1090 243C1092 244 1092 244 1092 244L1090 243Z" fill="#585758"/>
<path d="M1090 235C1092 236 1092 236 1092 236L1090 235Z" fill="#5A5859"/>
<path d="M1090 219C1092 220 1092 220 1092 220L1090 219Z" fill="#5C5D5D"/>
<path d="M1090 211C1092 212 1092 212 1092 212L1090 211Z" fill="#5D5E5E"/>
<path d="M1090 179C1092 180 1092 180 1092 180L1090 179Z" fill="#636363"/>
<path d="M1090 163C1092 164 1092 164 1092 164L1090 163Z" fill="#676566"/>
<path d="M1090 147C1092 148 1092 148 1092 148L1090 147Z" fill="#696768"/>
<path d="M1090 59C1092 60 1092 60 1092 60L1090 59Z" fill="#717271"/>
<path d="M1090 43C1092 44 1092 44 1092 44L1090 43Z" fill="#727273"/>
<path d="M1090 35C1092 36 1092 36 1092 36L1090 35Z" fill="#737374"/>
<path d="M1090 27C1092 28 1092 28 1092 28L1090 27Z" fill="#737375"/>
</svg>
